<?xml version="1.0" encoding="UTF-8" standalone="no"?>
<!-- Created with Inkscape (http://www.inkscape.org/) -->
<svg
   xmlns:dc="http://purl.org/dc/elements/1.1/"
   xmlns:cc="http://web.resource.org/cc/"
   xmlns:rdf="http://www.w3.org/1999/02/22-rdf-syntax-ns#"
   xmlns:svg="http://www.w3.org/2000/svg"
   xmlns="http://www.w3.org/2000/svg"
   xmlns:sodipodi="http://sodipodi.sourceforge.net/DTD/sodipodi-0.dtd"
   xmlns:inkscape="http://www.inkscape.org/namespaces/inkscape"
   id="svg3866"
   sodipodi:version="0.32"
   inkscape:version="0.44.1"
   width="120"
   height="120"
   version="1.0"
   sodipodi:docbase="E:\Bryan\Temp\SG Glyphs"
   sodipodi:docname="AtlantisGlyph14.svg">
  <metadata
     id="metadata3871">
    <rdf:RDF>
      <cc:Work
         rdf:about="">
        <dc:format>image/svg+xml</dc:format>
        <dc:type
           rdf:resource="http://purl.org/dc/dcmitype/StillImage" />
      </cc:Work>
    </rdf:RDF>
  </metadata>
  <defs
     id="defs3869" />
  <sodipodi:namedview
     inkscape:window-height="721"
     inkscape:window-width="1024"
     inkscape:pageshadow="2"
     inkscape:pageopacity="0.0"
     guidetolerance="10.0"
     gridtolerance="10.0"
     objecttolerance="10.0"
     borderopacity="1.0"
     bordercolor="#666666"
     pagecolor="#ffffff"
     id="base"
     inkscape:zoom="4.3833333"
     inkscape:cx="60"
     inkscape:cy="60"
     inkscape:window-x="-4"
     inkscape:window-y="-4"
     inkscape:current-layer="svg3866" />
  <path
     sodipodi:type="arc"
     style="opacity:1;fill:black;fill-opacity:1;fill-rule:evenodd;stroke:none;stroke-width:2.5;stroke-linecap:butt;stroke-linejoin:miter;stroke-miterlimit:4;stroke-dasharray:none;stroke-opacity:1"
     id="path1932"
     sodipodi:cx="20.988594"
     sodipodi:cy="34.676807"
     sodipodi:rx="4"
     sodipodi:ry="4"
     d="M 24.988594 34.676807 A 4 4 0 1 1  16.988594,34.676807 A 4 4 0 1 1  24.988594 34.676807 z"
     transform="translate(-2.28137,33.30798)" />
  <path
     sodipodi:type="arc"
     style="opacity:1;fill:black;fill-opacity:1;fill-rule:evenodd;stroke:none;stroke-width:2.5;stroke-linecap:butt;stroke-linejoin:miter;stroke-miterlimit:4;stroke-dasharray:none;stroke-opacity:1"
     id="path3876"
     sodipodi:cx="20.988594"
     sodipodi:cy="34.676807"
     sodipodi:rx="4"
     sodipodi:ry="4"
     d="M 24.988594 34.676807 A 4 4 0 1 1  16.988594,34.676807 A 4 4 0 1 1  24.988594 34.676807 z"
     transform="translate(-4.334602,13.23194)" />
  <path
     sodipodi:type="arc"
     style="opacity:1;fill:black;fill-opacity:1;fill-rule:evenodd;stroke:none;stroke-width:2.5;stroke-linecap:butt;stroke-linejoin:miter;stroke-miterlimit:4;stroke-dasharray:none;stroke-opacity:1"
     id="path3878"
     sodipodi:cx="20.988594"
     sodipodi:cy="34.676807"
     sodipodi:rx="4"
     sodipodi:ry="4"
     d="M 24.988594 34.676807 A 4 4 0 1 1  16.988594,34.676807 A 4 4 0 1 1  24.988594 34.676807 z"
     transform="translate(9.125474,-1.825096)" />
  <path
     sodipodi:type="arc"
     style="opacity:1;fill:black;fill-opacity:1;fill-rule:evenodd;stroke:none;stroke-width:2.5;stroke-linecap:butt;stroke-linejoin:miter;stroke-miterlimit:4;stroke-dasharray:none;stroke-opacity:1"
     id="path3880"
     sodipodi:cx="20.988594"
     sodipodi:cy="34.676807"
     sodipodi:rx="4"
     sodipodi:ry="4"
     d="M 24.988594 34.676807 A 4 4 0 1 1  16.988594,34.676807 A 4 4 0 1 1  24.988594 34.676807 z"
     transform="translate(23.4981,15.74144)" />
  <path
     sodipodi:type="arc"
     style="opacity:1;fill:black;fill-opacity:1;fill-rule:evenodd;stroke:none;stroke-width:2.5;stroke-linecap:butt;stroke-linejoin:miter;stroke-miterlimit:4;stroke-dasharray:none;stroke-opacity:1"
     id="path3882"
     sodipodi:cx="20.988594"
     sodipodi:cy="34.676807"
     sodipodi:rx="4"
     sodipodi:ry="4"
     d="M 24.988594 34.676807 A 4 4 0 1 1  16.988594,34.676807 A 4 4 0 1 1  24.988594 34.676807 z"
     transform="translate(43.57414,1.36882)" />
  <path
     sodipodi:type="arc"
     style="opacity:1;fill:black;fill-opacity:1;fill-rule:evenodd;stroke:none;stroke-width:2.5;stroke-linecap:butt;stroke-linejoin:miter;stroke-miterlimit:4;stroke-dasharray:none;stroke-opacity:1"
     id="path3884"
     sodipodi:cx="20.988594"
     sodipodi:cy="34.676807"
     sodipodi:rx="4"
     sodipodi:ry="4"
     d="M 24.988594 34.676807 A 4 4 0 1 1  16.988594,34.676807 A 4 4 0 1 1  24.988594 34.676807 z"
     transform="translate(47.45247,26.92015)" />
  <path
     sodipodi:type="arc"
     style="opacity:1;fill:black;fill-opacity:1;fill-rule:evenodd;stroke:none;stroke-width:2.5;stroke-linecap:butt;stroke-linejoin:miter;stroke-miterlimit:4;stroke-dasharray:none;stroke-opacity:1"
     id="path3886"
     sodipodi:cx="20.988594"
     sodipodi:cy="34.676807"
     sodipodi:rx="4"
     sodipodi:ry="4"
     d="M 24.988594 34.676807 A 4 4 0 1 1  16.988594,34.676807 A 4 4 0 1 1  24.988594 34.676807 z"
     transform="translate(69.12547,-1.825096)" />
  <path
     sodipodi:type="arc"
     style="opacity:1;fill:black;fill-opacity:1;fill-rule:evenodd;stroke:none;stroke-width:2.5;stroke-linecap:butt;stroke-linejoin:miter;stroke-miterlimit:4;stroke-dasharray:none;stroke-opacity:1"
     id="path3888"
     sodipodi:cx="20.988594"
     sodipodi:cy="34.676807"
     sodipodi:rx="4"
     sodipodi:ry="4"
     d="M 24.988594 34.676807 A 4 4 0 1 1  16.988594,34.676807 A 4 4 0 1 1  24.988594 34.676807 z"
     transform="translate(66.84411,31.71103)" />
  <path
     sodipodi:type="arc"
     style="opacity:1;fill:black;fill-opacity:1;fill-rule:evenodd;stroke:none;stroke-width:2.5;stroke-linecap:butt;stroke-linejoin:miter;stroke-miterlimit:4;stroke-dasharray:none;stroke-opacity:1"
     id="path3890"
     sodipodi:cx="20.988594"
     sodipodi:cy="34.676807"
     sodipodi:rx="4"
     sodipodi:ry="4"
     d="M 24.988594 34.676807 A 4 4 0 1 1  16.988594,34.676807 A 4 4 0 1 1  24.988594 34.676807 z"
     transform="translate(45.85551,54.06844)" />
  <path
     sodipodi:type="arc"
     style="opacity:1;fill:black;fill-opacity:1;fill-rule:evenodd;stroke:none;stroke-width:2.5;stroke-linecap:butt;stroke-linejoin:miter;stroke-miterlimit:4;stroke-dasharray:none;stroke-opacity:1"
     id="path3892"
     sodipodi:cx="20.988594"
     sodipodi:cy="34.676807"
     sodipodi:rx="4"
     sodipodi:ry="4"
     d="M 24.988594 34.676807 A 4 4 0 1 1  16.988594,34.676807 A 4 4 0 1 1  24.988594 34.676807 z"
     transform="translate(57.94677,62.05323)" />
  <path
     sodipodi:type="arc"
     style="opacity:1;fill:black;fill-opacity:1;fill-rule:evenodd;stroke:none;stroke-width:2.5;stroke-linecap:butt;stroke-linejoin:miter;stroke-miterlimit:4;stroke-dasharray:none;stroke-opacity:1"
     id="path3894"
     sodipodi:cx="20.988594"
     sodipodi:cy="34.676807"
     sodipodi:rx="4"
     sodipodi:ry="4"
     d="M 24.988594 34.676807 A 4 4 0 1 1  16.988594,34.676807 A 4 4 0 1 1  24.988594 34.676807 z"
     transform="translate(83.72623,20.53232)" />
  <path
     sodipodi:type="arc"
     style="opacity:1;fill:black;fill-opacity:1;fill-rule:evenodd;stroke:none;stroke-width:2.5;stroke-linecap:butt;stroke-linejoin:miter;stroke-miterlimit:4;stroke-dasharray:none;stroke-opacity:1"
     id="path3896"
     sodipodi:cx="20.988594"
     sodipodi:cy="34.676807"
     sodipodi:rx="4"
     sodipodi:ry="4"
     d="M 24.988594 34.676807 A 4 4 0 1 1  16.988594,34.676807 A 4 4 0 1 1  24.988594 34.676807 z"
     transform="translate(88.28897,6.844105)" />
  <path
     style="fill:none;fill-rule:evenodd;stroke:black;stroke-width:1px;stroke-linecap:butt;stroke-linejoin:miter;stroke-opacity:1"
     d="M 16.425856,47.908745 L 29.885932,32.851711 L 44.258555,50.190114 L 18.479087,68.212928"
     id="path3898" />
  <path
     style="fill:none;fill-rule:evenodd;stroke:black;stroke-width:1px;stroke-linecap:butt;stroke-linejoin:miter;stroke-opacity:1"
     d="M 64.334601,36.045627 L 68.441065,61.596958 L 109.27757,41.292776 L 104.71483,55.209125"
     id="path3900" />
  <path
     style="fill:none;fill-rule:evenodd;stroke:black;stroke-width:1px;stroke-linecap:butt;stroke-linejoin:miter;stroke-opacity:1"
     d="M 90.114068,32.623574 L 87.604563,66.387833 L 66.844106,88.745247 L 79.163498,97.186312"
     id="path3902" />
</svg>
