<?xml version="1.0" encoding="UTF-8" standalone="no"?>
<!-- Created with Inkscape (http://www.inkscape.org/) -->
<svg
   xmlns:dc="http://purl.org/dc/elements/1.1/"
   xmlns:cc="http://web.resource.org/cc/"
   xmlns:rdf="http://www.w3.org/1999/02/22-rdf-syntax-ns#"
   xmlns:svg="http://www.w3.org/2000/svg"
   xmlns="http://www.w3.org/2000/svg"
   xmlns:sodipodi="http://sodipodi.sourceforge.net/DTD/sodipodi-0.dtd"
   xmlns:inkscape="http://www.inkscape.org/namespaces/inkscape"
   id="svg4163"
   sodipodi:version="0.32"
   inkscape:version="0.44.1"
   width="120"
   height="120"
   version="1.0"
   sodipodi:docbase="E:\Bryan\Temp\SG Glyphs"
   sodipodi:docname="AtlantisGlyph18.svg">
  <metadata
     id="metadata4168">
    <rdf:RDF>
      <cc:Work
         rdf:about="">
        <dc:format>image/svg+xml</dc:format>
        <dc:type
           rdf:resource="http://purl.org/dc/dcmitype/StillImage" />
      </cc:Work>
    </rdf:RDF>
  </metadata>
  <defs
     id="defs4166" />
  <sodipodi:namedview
     inkscape:window-height="721"
     inkscape:window-width="1024"
     inkscape:pageshadow="2"
     inkscape:pageopacity="0.0"
     guidetolerance="10.0"
     gridtolerance="10.0"
     objecttolerance="10.0"
     borderopacity="1.0"
     bordercolor="#666666"
     pagecolor="#ffffff"
     id="base"
     inkscape:zoom="4.3833333"
     inkscape:cx="60"
     inkscape:cy="60"
     inkscape:window-x="-4"
     inkscape:window-y="-4"
     inkscape:current-layer="svg4163" />
  <path
     sodipodi:type="arc"
     style="opacity:1;fill:black;fill-opacity:1;fill-rule:evenodd;stroke:none;stroke-width:2.5;stroke-linecap:butt;stroke-linejoin:miter;stroke-miterlimit:4;stroke-dasharray:none;stroke-opacity:1"
     id="path1932"
     sodipodi:cx="20.988594"
     sodipodi:cy="34.676807"
     sodipodi:rx="4"
     sodipodi:ry="4"
     d="M 24.988594 34.676807 A 4 4 0 1 1  16.988594,34.676807 A 4 4 0 1 1  24.988594 34.676807 z"
     transform="translate(-10.26616,40.60836)" />
  <path
     sodipodi:type="arc"
     style="opacity:1;fill:black;fill-opacity:1;fill-rule:evenodd;stroke:none;stroke-width:2.5;stroke-linecap:butt;stroke-linejoin:miter;stroke-miterlimit:4;stroke-dasharray:none;stroke-opacity:1"
     id="path4173"
     sodipodi:cx="20.988594"
     sodipodi:cy="34.676807"
     sodipodi:rx="4"
     sodipodi:ry="4"
     d="M 24.988594 34.676807 A 4 4 0 1 1  16.988594,34.676807 A 4 4 0 1 1  24.988594 34.676807 z"
     transform="translate(14.8289,40.60836)" />
  <path
     sodipodi:type="arc"
     style="opacity:1;fill:black;fill-opacity:1;fill-rule:evenodd;stroke:none;stroke-width:2.5;stroke-linecap:butt;stroke-linejoin:miter;stroke-miterlimit:4;stroke-dasharray:none;stroke-opacity:1"
     id="path4175"
     sodipodi:cx="20.988594"
     sodipodi:cy="34.676807"
     sodipodi:rx="4"
     sodipodi:ry="4"
     d="M 24.988594 34.676807 A 4 4 0 1 1  16.988594,34.676807 A 4 4 0 1 1  24.988594 34.676807 z"
     transform="translate(5.931558,24.41065)" />
  <path
     sodipodi:type="arc"
     style="opacity:1;fill:black;fill-opacity:1;fill-rule:evenodd;stroke:none;stroke-width:2.5;stroke-linecap:butt;stroke-linejoin:miter;stroke-miterlimit:4;stroke-dasharray:none;stroke-opacity:1"
     id="path4177"
     sodipodi:cx="20.988594"
     sodipodi:cy="34.676807"
     sodipodi:rx="4"
     sodipodi:ry="4"
     d="M 24.988594 34.676807 A 4 4 0 1 1  16.988594,34.676807 A 4 4 0 1 1  24.988594 34.676807 z"
     transform="translate(11.40684,2.965778)" />
  <path
     sodipodi:type="arc"
     style="opacity:1;fill:black;fill-opacity:1;fill-rule:evenodd;stroke:none;stroke-width:2.5;stroke-linecap:butt;stroke-linejoin:miter;stroke-miterlimit:4;stroke-dasharray:none;stroke-opacity:1"
     id="path4179"
     sodipodi:cx="20.988594"
     sodipodi:cy="34.676807"
     sodipodi:rx="4"
     sodipodi:ry="4"
     d="M 24.988594 34.676807 A 4 4 0 1 1  16.988594,34.676807 A 4 4 0 1 1  24.988594 34.676807 z"
     transform="translate(27.60456,11.17871)" />
  <path
     sodipodi:type="arc"
     style="opacity:1;fill:black;fill-opacity:1;fill-rule:evenodd;stroke:none;stroke-width:2.5;stroke-linecap:butt;stroke-linejoin:miter;stroke-miterlimit:4;stroke-dasharray:none;stroke-opacity:1"
     id="path4181"
     sodipodi:cx="20.988594"
     sodipodi:cy="34.676807"
     sodipodi:rx="4"
     sodipodi:ry="4"
     d="M 24.988594 34.676807 A 4 4 0 1 1  16.988594,34.676807 A 4 4 0 1 1  24.988594 34.676807 z"
     transform="translate(44.25855,26.92015)" />
  <path
     sodipodi:type="arc"
     style="opacity:1;fill:black;fill-opacity:1;fill-rule:evenodd;stroke:none;stroke-width:2.5;stroke-linecap:butt;stroke-linejoin:miter;stroke-miterlimit:4;stroke-dasharray:none;stroke-opacity:1"
     id="path4183"
     sodipodi:cx="20.988594"
     sodipodi:cy="34.676807"
     sodipodi:rx="4"
     sodipodi:ry="4"
     d="M 24.988594 34.676807 A 4 4 0 1 1  16.988594,34.676807 A 4 4 0 1 1  24.988594 34.676807 z"
     transform="translate(44.94296,49.27757)" />
  <path
     sodipodi:type="arc"
     style="opacity:1;fill:black;fill-opacity:1;fill-rule:evenodd;stroke:none;stroke-width:2.5;stroke-linecap:butt;stroke-linejoin:miter;stroke-miterlimit:4;stroke-dasharray:none;stroke-opacity:1"
     id="path4185"
     sodipodi:cx="20.988594"
     sodipodi:cy="34.676807"
     sodipodi:rx="4"
     sodipodi:ry="4"
     d="M 24.988594 34.676807 A 4 4 0 1 1  16.988594,34.676807 A 4 4 0 1 1  24.988594 34.676807 z"
     transform="translate(67.52852,43.57414)" />
  <path
     sodipodi:type="arc"
     style="opacity:1;fill:black;fill-opacity:1;fill-rule:evenodd;stroke:none;stroke-width:2.5;stroke-linecap:butt;stroke-linejoin:miter;stroke-miterlimit:4;stroke-dasharray:none;stroke-opacity:1"
     id="path4187"
     sodipodi:cx="20.988594"
     sodipodi:cy="34.676807"
     sodipodi:rx="4"
     sodipodi:ry="4"
     d="M 24.988594 34.676807 A 4 4 0 1 1  16.988594,34.676807 A 4 4 0 1 1  24.988594 34.676807 z"
     transform="translate(88.51711,23.04182)" />
  <path
     sodipodi:type="arc"
     style="opacity:1;fill:black;fill-opacity:1;fill-rule:evenodd;stroke:none;stroke-width:2.5;stroke-linecap:butt;stroke-linejoin:miter;stroke-miterlimit:4;stroke-dasharray:none;stroke-opacity:1"
     id="path4189"
     sodipodi:cx="20.988594"
     sodipodi:cy="34.676807"
     sodipodi:rx="4"
     sodipodi:ry="4"
     d="M 24.988594 34.676807 A 4 4 0 1 1  16.988594,34.676807 A 4 4 0 1 1  24.988594 34.676807 z"
     transform="translate(86.0076,43.80228)" />
  <path
     style="fill:none;fill-rule:evenodd;stroke:black;stroke-width:1px;stroke-linecap:butt;stroke-linejoin:miter;stroke-opacity:1"
     d="M 10.722433,75.057034 L 35.589354,75.285171 L 26.692015,58.859316 L 32.1673,37.414449 L 48.365019,45.627376 L 65.019011,61.596958"
     id="path4191" />
  <path
     style="fill:none;fill-rule:evenodd;stroke:black;stroke-width:1px;stroke-linecap:butt;stroke-linejoin:miter;stroke-opacity:1"
     d="M 65.703422,83.954373 L 88.288973,78.250951 L 109.27757,57.490494 L 106.76806,78.479087"
     id="path4193" />
</svg>
