<?xml version="1.0" encoding="UTF-8" standalone="no"?>
<!-- Created with Inkscape (http://www.inkscape.org/) -->
<svg
   xmlns:dc="http://purl.org/dc/elements/1.1/"
   xmlns:cc="http://web.resource.org/cc/"
   xmlns:rdf="http://www.w3.org/1999/02/22-rdf-syntax-ns#"
   xmlns:svg="http://www.w3.org/2000/svg"
   xmlns="http://www.w3.org/2000/svg"
   xmlns:sodipodi="http://sodipodi.sourceforge.net/DTD/sodipodi-0.dtd"
   xmlns:inkscape="http://www.inkscape.org/namespaces/inkscape"
   id="svg4228"
   sodipodi:version="0.32"
   inkscape:version="0.44.1"
   width="120"
   height="120"
   version="1.0"
   sodipodi:docbase="E:\Bryan\Temp\SG Glyphs"
   sodipodi:docname="AtlantisGlyph19.svg">
  <metadata
     id="metadata4233">
    <rdf:RDF>
      <cc:Work
         rdf:about="">
        <dc:format>image/svg+xml</dc:format>
        <dc:type
           rdf:resource="http://purl.org/dc/dcmitype/StillImage" />
      </cc:Work>
    </rdf:RDF>
  </metadata>
  <defs
     id="defs4231" />
  <sodipodi:namedview
     inkscape:window-height="721"
     inkscape:window-width="1024"
     inkscape:pageshadow="2"
     inkscape:pageopacity="0.0"
     guidetolerance="10.0"
     gridtolerance="10.0"
     objecttolerance="10.0"
     borderopacity="1.0"
     bordercolor="#666666"
     pagecolor="#ffffff"
     id="base"
     inkscape:zoom="4.3833333"
     inkscape:cx="60"
     inkscape:cy="60"
     inkscape:window-x="-4"
     inkscape:window-y="-4"
     inkscape:current-layer="svg4228" />
  <path
     sodipodi:type="arc"
     style="opacity:1;fill:black;fill-opacity:1;fill-rule:evenodd;stroke:none;stroke-width:2.5;stroke-linecap:butt;stroke-linejoin:miter;stroke-miterlimit:4;stroke-dasharray:none;stroke-opacity:1"
     id="path1932"
     sodipodi:cx="20.988594"
     sodipodi:cy="34.676807"
     sodipodi:rx="4"
     sodipodi:ry="4"
     d="M 24.988594 34.676807 A 4 4 0 1 1  16.988594,34.676807 A 4 4 0 1 1  24.988594 34.676807 z"
     transform="translate(4.3346,-4.106465)" />
  <path
     sodipodi:type="arc"
     style="opacity:1;fill:black;fill-opacity:1;fill-rule:evenodd;stroke:none;stroke-width:2.5;stroke-linecap:butt;stroke-linejoin:miter;stroke-miterlimit:4;stroke-dasharray:none;stroke-opacity:1"
     id="path4238"
     sodipodi:cx="20.988594"
     sodipodi:cy="34.676807"
     sodipodi:rx="4"
     sodipodi:ry="4"
     d="M 24.988594 34.676807 A 4 4 0 1 1  16.988594,34.676807 A 4 4 0 1 1  24.988594 34.676807 z"
     transform="translate(7.300379,16.88213)" />
  <path
     sodipodi:type="arc"
     style="opacity:1;fill:black;fill-opacity:1;fill-rule:evenodd;stroke:none;stroke-width:2.5;stroke-linecap:butt;stroke-linejoin:miter;stroke-miterlimit:4;stroke-dasharray:none;stroke-opacity:1"
     id="path4240"
     sodipodi:cx="20.988594"
     sodipodi:cy="34.676807"
     sodipodi:rx="4"
     sodipodi:ry="4"
     d="M 24.988594 34.676807 A 4 4 0 1 1  16.988594,34.676807 A 4 4 0 1 1  24.988594 34.676807 z"
     transform="translate(14.14449,39.01141)" />
  <path
     sodipodi:type="arc"
     style="opacity:1;fill:black;fill-opacity:1;fill-rule:evenodd;stroke:none;stroke-width:2.5;stroke-linecap:butt;stroke-linejoin:miter;stroke-miterlimit:4;stroke-dasharray:none;stroke-opacity:1"
     id="path4242"
     sodipodi:cx="20.988594"
     sodipodi:cy="34.676807"
     sodipodi:rx="4"
     sodipodi:ry="4"
     d="M 24.988594 34.676807 A 4 4 0 1 1  16.988594,34.676807 A 4 4 0 1 1  24.988594 34.676807 z"
     transform="translate(25.77947,33.30798)" />
  <path
     sodipodi:type="arc"
     style="opacity:1;fill:black;fill-opacity:1;fill-rule:evenodd;stroke:none;stroke-width:2.5;stroke-linecap:butt;stroke-linejoin:miter;stroke-miterlimit:4;stroke-dasharray:none;stroke-opacity:1"
     id="path4244"
     sodipodi:cx="20.988594"
     sodipodi:cy="34.676807"
     sodipodi:rx="4"
     sodipodi:ry="4"
     d="M 24.988594 34.676807 A 4 4 0 1 1  16.988594,34.676807 A 4 4 0 1 1  24.988594 34.676807 z"
     transform="translate(22.81369,49.96198)" />
  <path
     sodipodi:type="arc"
     style="opacity:1;fill:black;fill-opacity:1;fill-rule:evenodd;stroke:none;stroke-width:2.5;stroke-linecap:butt;stroke-linejoin:miter;stroke-miterlimit:4;stroke-dasharray:none;stroke-opacity:1"
     id="path4246"
     sodipodi:cx="20.988594"
     sodipodi:cy="34.676807"
     sodipodi:rx="4"
     sodipodi:ry="4"
     d="M 24.988594 34.676807 A 4 4 0 1 1  16.988594,34.676807 A 4 4 0 1 1  24.988594 34.676807 z"
     transform="translate(33.99239,45.39924)" />
  <path
     sodipodi:type="arc"
     style="opacity:1;fill:black;fill-opacity:1;fill-rule:evenodd;stroke:none;stroke-width:2.5;stroke-linecap:butt;stroke-linejoin:miter;stroke-miterlimit:4;stroke-dasharray:none;stroke-opacity:1"
     id="path4248"
     sodipodi:cx="20.988594"
     sodipodi:cy="34.676807"
     sodipodi:rx="4"
     sodipodi:ry="4"
     d="M 24.988594 34.676807 A 4 4 0 1 1  16.988594,34.676807 A 4 4 0 1 1  24.988594 34.676807 z"
     transform="translate(50.41825,35.81749)" />
  <path
     sodipodi:type="arc"
     style="opacity:1;fill:black;fill-opacity:1;fill-rule:evenodd;stroke:none;stroke-width:2.5;stroke-linecap:butt;stroke-linejoin:miter;stroke-miterlimit:4;stroke-dasharray:none;stroke-opacity:1"
     id="path4250"
     sodipodi:cx="20.988594"
     sodipodi:cy="34.676807"
     sodipodi:rx="4"
     sodipodi:ry="4"
     d="M 24.988594 34.676807 A 4 4 0 1 1  16.988594,34.676807 A 4 4 0 1 1  24.988594 34.676807 z"
     transform="translate(44.48669,55.6654)" />
  <path
     sodipodi:type="arc"
     style="opacity:1;fill:black;fill-opacity:1;fill-rule:evenodd;stroke:none;stroke-width:2.5;stroke-linecap:butt;stroke-linejoin:miter;stroke-miterlimit:4;stroke-dasharray:none;stroke-opacity:1"
     id="path4252"
     sodipodi:cx="20.988594"
     sodipodi:cy="34.676807"
     sodipodi:rx="4"
     sodipodi:ry="4"
     d="M 24.988594 34.676807 A 4 4 0 1 1  16.988594,34.676807 A 4 4 0 1 1  24.988594 34.676807 z"
     transform="translate(72.09125,31.71103)" />
  <path
     sodipodi:type="arc"
     style="opacity:1;fill:black;fill-opacity:1;fill-rule:evenodd;stroke:none;stroke-width:2.5;stroke-linecap:butt;stroke-linejoin:miter;stroke-miterlimit:4;stroke-dasharray:none;stroke-opacity:1"
     id="path4254"
     sodipodi:cx="20.988594"
     sodipodi:cy="34.676807"
     sodipodi:rx="4"
     sodipodi:ry="4"
     d="M 24.988594 34.676807 A 4 4 0 1 1  16.988594,34.676807 A 4 4 0 1 1  24.988594 34.676807 z"
     transform="translate(57.94677,17.79468)" />
  <path
     sodipodi:type="arc"
     style="opacity:1;fill:black;fill-opacity:1;fill-rule:evenodd;stroke:none;stroke-width:2.5;stroke-linecap:butt;stroke-linejoin:miter;stroke-miterlimit:4;stroke-dasharray:none;stroke-opacity:1"
     id="path4256"
     sodipodi:cx="20.988594"
     sodipodi:cy="34.676807"
     sodipodi:rx="4"
     sodipodi:ry="4"
     d="M 24.988594 34.676807 A 4 4 0 1 1  16.988594,34.676807 A 4 4 0 1 1  24.988594 34.676807 z"
     transform="translate(75.05703,5.931558)" />
  <path
     sodipodi:type="arc"
     style="opacity:1;fill:black;fill-opacity:1;fill-rule:evenodd;stroke:none;stroke-width:2.5;stroke-linecap:butt;stroke-linejoin:miter;stroke-miterlimit:4;stroke-dasharray:none;stroke-opacity:1"
     id="path4258"
     sodipodi:cx="20.988594"
     sodipodi:cy="34.676807"
     sodipodi:rx="4"
     sodipodi:ry="4"
     d="M 24.988594 34.676807 A 4 4 0 1 1  16.988594,34.676807 A 4 4 0 1 1  24.988594 34.676807 z"
     transform="translate(55.43726,1.825094)" />
  <path
     sodipodi:type="arc"
     style="opacity:1;fill:black;fill-opacity:1;fill-rule:evenodd;stroke:none;stroke-width:2.5;stroke-linecap:butt;stroke-linejoin:miter;stroke-miterlimit:4;stroke-dasharray:none;stroke-opacity:1"
     id="path4260"
     sodipodi:cx="20.988594"
     sodipodi:cy="34.676807"
     sodipodi:rx="4"
     sodipodi:ry="4"
     d="M 24.988594 34.676807 A 4 4 0 1 1  16.988594,34.676807 A 4 4 0 1 1  24.988594 34.676807 z"
     transform="translate(36.27376,-0.684412)" />
  <path
     sodipodi:type="arc"
     style="opacity:1;fill:black;fill-opacity:1;fill-rule:evenodd;stroke:none;stroke-width:2.5;stroke-linecap:butt;stroke-linejoin:miter;stroke-miterlimit:4;stroke-dasharray:none;stroke-opacity:1"
     id="path4262"
     sodipodi:cx="20.988594"
     sodipodi:cy="34.676807"
     sodipodi:rx="4"
     sodipodi:ry="4"
     d="M 24.988594 34.676807 A 4 4 0 1 1  16.988594,34.676807 A 4 4 0 1 1  24.988594 34.676807 z"
     transform="translate(23.72623,7.756653)" />
  <path
     style="fill:none;fill-rule:evenodd;stroke:black;stroke-width:1px;stroke-linecap:butt;stroke-linejoin:miter;stroke-opacity:1"
     d="M 25.095057,30.570342 L 28.288973,51.558935 L 34.904943,73.460076 L 43.574144,84.86692"
     id="path4264" />
  <path
     style="fill:none;fill-rule:evenodd;stroke:black;stroke-width:1px;stroke-linecap:butt;stroke-linejoin:miter;stroke-opacity:1"
     d="M 35.13308,73.460076 L 46.539924,68.212928"
     id="path4266" />
  <path
     style="fill:none;fill-rule:evenodd;stroke:black;stroke-width:1px;stroke-linecap:butt;stroke-linejoin:miter;stroke-opacity:1"
     d="M 54.980989,80.076046 L 71.178707,70.494297 L 93.079848,66.387833 L 95.81749,40.608365 L 76.425856,36.730038 L 57.034221,33.992395 L 44.486692,42.661597"
     id="path4268" />
  <path
     style="fill:none;fill-rule:evenodd;stroke:black;stroke-width:1px;stroke-linecap:butt;stroke-linejoin:miter;stroke-opacity:1"
     d="M 78.707224,52.243346 L 93.079848,66.61597"
     id="path4270" />
  <path
     style="fill:none;fill-rule:evenodd;stroke:black;stroke-width:1px;stroke-linecap:butt;stroke-linejoin:miter;stroke-opacity:1"
     d="M 71.406844,70.494297 L 65.475285,90.342205"
     id="path4272" />
</svg>
