<?xml version="1.0" standalone="no"?>
<!DOCTYPE svg PUBLIC "-//W3C//DTD SVG 20010904//EN"
 "http://www.w3.org/TR/2001/REC-SVG-20010904/DTD/svg10.dtd">
<svg version="1.0" xmlns="http://www.w3.org/2000/svg"
 width="241pt" height="241pt" viewBox="0 0 241 241"
 preserveAspectRatio="xMidYMid meet">
<metadata>
Created by Potrace Professional 1.0c
</metadata>
<g transform="translate(0,241) scale(0.100000,-0.100000)"
fill="#000000" stroke="none">
<path d="M1020 1958 c-85 -50 -249 -145 -365 -211 -199 -114 -315 -185 -315
-194 0 -8 85 -95 111 -114 l28 -20 93 47 c381 191 868 475 868 505 0 11 -220
80 -252 79 -7 -1 -83 -42 -168 -92z"/>
<path d="M818 1548 c-76 -40 -138 -76 -138 -80 0 -5 21 -23 47 -41 127 -88
213 -159 315 -261 120 -120 413 -434 466 -499 l32 -40 0 -138 c0 -77 3 -139 7
-139 10 0 183 133 289 222 99 83 224 205 224 219 0 17 -160 58 -252 65 -93 7
-93 7 -170 61 -42 31 -121 101 -175 157 -193 197 -320 332 -413 439 -51 59
-94 107 -94 107 -1 0 -63 -33 -138 -72z m1025 -836 c-18 -15 -66 -55 -107 -90
l-76 -63 0 38 c0 21 3 62 6 91 l7 52 101 0 101 -1 -32 -27z"/>
</g>
</svg>
