<?xml version="1.0" standalone="no"?>
<!DOCTYPE svg PUBLIC "-//W3C//DTD SVG 20010904//EN"
 "http://www.w3.org/TR/2001/REC-SVG-20010904/DTD/svg10.dtd">
<svg version="1.0" xmlns="http://www.w3.org/2000/svg"
 width="241pt" height="241pt" viewBox="0 0 241 241"
 preserveAspectRatio="xMidYMid meet">
<metadata>
Created by Potrace Professional 1.0c
</metadata>
<g transform="translate(0,241) scale(0.100000,-0.100000)"
fill="#000000" stroke="none">
<path d="M1486 1984 c-25 -43 -47 -81 -48 -85 -2 -5 -579 -39 -674 -39 -17 0
-31 -21 -75 -117 -30 -65 -105 -221 -166 -346 -62 -125 -113 -233 -113 -239 0
-25 353 -770 382 -805 12 -15 17 -11 273 181 88 66 193 148 234 182 41 34 95
72 120 85 50 25 45 26 286 -26 118 -25 285 -44 285 -32 0 3 -18 48 -40 98
l-40 93 30 77 c16 43 30 84 30 90 0 9 -33 11 -132 6 -298 -14 -503 -29 -520
-38 -10 -6 -82 -67 -161 -137 -78 -70 -161 -142 -185 -160 l-42 -34 0 456 0
456 38 0 c40 0 401 33 567 51 119 14 147 29 226 121 96 111 122 148 107 153
-7 2 -78 20 -158 40 -80 20 -152 38 -161 41 -12 3 -29 -16 -63 -72z m-718
-1004 l-3 -170 -77 175 -78 175 78 167 77 166 3 -172 c1 -94 1 -248 0 -341z
m1042 -55 l0 -75 -78 42 c-44 24 -80 48 -82 53 -2 9 115 52 148 54 8 1 12 -20
12 -74z"/>
</g>
</svg>
