<?xml version="1.0" standalone="no"?>
<!DOCTYPE svg PUBLIC "-//W3C//DTD SVG 20010904//EN"
 "http://www.w3.org/TR/2001/REC-SVG-20010904/DTD/svg10.dtd">
<svg version="1.0" xmlns="http://www.w3.org/2000/svg"
 width="241pt" height="241pt" viewBox="0 0 241 241"
 preserveAspectRatio="xMidYMid meet">
<metadata>
Created by Potrace Professional 1.0c
</metadata>
<g transform="translate(0,241) scale(0.100000,-0.100000)"
fill="#000000" stroke="none">
<path d="M1325 1810 c-110 -121 -200 -223 -200 -227 0 -4 9 -38 19 -75 l19
-67 86 6 c205 13 399 -94 479 -264 24 -51 27 -69 25 -146 -2 -108 -22 -180
-67 -239 -40 -52 -124 -111 -211 -148 -59 -24 -65 -25 -262 -22 l-203 3 0
-131 0 -130 240 0 c221 0 244 2 297 22 275 102 454 366 454 668 0 63 -6 129
-16 165 -37 141 -133 271 -269 363 l-70 47 -51 195 c-28 106 -55 195 -61 196
-5 2 -99 -96 -209 -216z m174 -123 c7 -43 11 -80 9 -81 -1 -2 -51 -6 -110 -9
l-107 -5 91 99 c59 64 95 94 99 86 3 -6 12 -47 18 -90z"/>
<path d="M567 868 c-170 -261 -182 -283 -167 -308 11 -18 474 -44 504 -28 28
15 18 51 -79 268 -95 216 -109 240 -130 240 -8 0 -66 -78 -128 -172z m162
-122 c22 -52 41 -97 41 -100 0 -8 -180 4 -196 13 -12 6 90 181 105 181 5 0 27
-42 50 -94z"/>
</g>
</svg>
