<?xml version="1.0" standalone="no"?>
<!DOCTYPE svg PUBLIC "-//W3C//DTD SVG 20010904//EN"
 "http://www.w3.org/TR/2001/REC-SVG-20010904/DTD/svg10.dtd">
<svg version="1.0" xmlns="http://www.w3.org/2000/svg"
 width="241pt" height="241pt" viewBox="0 0 241 241"
 preserveAspectRatio="xMidYMid meet">
<metadata>
Created by Potrace Professional 1.0c
</metadata>
<g transform="translate(0,241) scale(0.100000,-0.100000)"
fill="#000000" stroke="none">
<path d="M850 2110 c0 -3 -18 -131 -39 -285 -22 -154 -56 -419 -77 -588 -32
-266 -35 -310 -23 -322 9 -9 70 -20 177 -32 l163 -17 57 -71 c32 -38 96 -119
142 -179 l84 -110 12 -103 c6 -57 14 -106 17 -109 6 -6 335 266 336 278 1 3
-48 23 -109 43 -124 41 -114 32 -301 270 -162 205 -145 164 -263 610 -153 581
-158 599 -168 610 -4 5 -8 7 -8 5z m115 -872 l52 -219 -56 6 c-120 13 -121 13
-116 43 3 15 14 99 25 187 26 206 33 245 38 221 2 -10 28 -117 57 -238z"/>
<path d="M1220 1463 c-47 -19 -86 -36 -87 -37 -4 -3 159 -420 168 -430 7 -8
169 61 169 73 0 7 -158 422 -162 426 -2 2 -41 -12 -88 -32z"/>
</g>
</svg>
