<?xml version="1.0" standalone="no"?>
<!DOCTYPE svg PUBLIC "-//W3C//DTD SVG 20010904//EN"
 "http://www.w3.org/TR/2001/REC-SVG-20010904/DTD/svg10.dtd">
<svg version="1.0" xmlns="http://www.w3.org/2000/svg"
 width="241pt" height="241pt" viewBox="0 0 241 241"
 preserveAspectRatio="xMidYMid meet">
<metadata>
Created by Potrace Professional 1.0c
</metadata>
<g transform="translate(0,241) scale(0.100000,-0.100000)"
fill="#000000" stroke="none">
<path d="M836 1987 c-15 -11 -15 -20 0 -119 16 -106 16 -110 -5 -220 -13 -62
-40 -185 -62 -272 -22 -88 -39 -171 -37 -185 4 -32 5 -33 369 -194 l277 -123
-190 -103 -190 -103 -102 22 c-103 23 -136 22 -136 -2 0 -7 31 -101 68 -208
49 -141 72 -196 84 -198 12 -2 34 23 75 85 32 48 65 93 73 100 8 7 65 38 125
69 61 31 179 95 264 142 l153 85 105 -32 c132 -40 138 -38 129 64 -12 132 -29
260 -37 283 -11 29 -27 28 -135 -10 l-91 -31 -199 90 c-109 50 -244 108 -299
128 -55 20 -101 38 -102 39 -2 1 10 63 27 137 16 74 34 174 41 222 9 76 18
100 56 164 29 49 43 85 41 102 -3 25 -8 27 -118 48 -63 12 -127 24 -141 27
-15 3 -34 0 -43 -7z"/>
</g>
</svg>
