<?xml version="1.0" standalone="no"?>
<!DOCTYPE svg PUBLIC "-//W3C//DTD SVG 20010904//EN"
 "http://www.w3.org/TR/2001/REC-SVG-20010904/DTD/svg10.dtd">
<svg version="1.0" xmlns="http://www.w3.org/2000/svg"
 width="241pt" height="241pt" viewBox="0 0 241 241"
 preserveAspectRatio="xMidYMid meet">
<metadata>
Created by Potrace Professional 1.0c
</metadata>
<g transform="translate(0,241) scale(0.100000,-0.100000)"
fill="#000000" stroke="none">
<path d="M474 1936 c-3 -8 4 -63 15 -123 11 -59 18 -126 15 -148 -2 -22 -15
-128 -29 -235 -14 -107 -36 -296 -50 -420 -14 -124 -34 -292 -45 -373 -21
-160 -18 -187 23 -187 12 0 88 22 168 50 152 51 216 65 359 75 47 4 189 19
315 35 127 16 292 35 367 42 l138 12 127 -41 c149 -48 170 -46 158 15 -4 21
-22 117 -39 215 -20 111 -37 182 -46 187 -20 12 -51 -3 -144 -69 -53 -37 -97
-61 -122 -65 -21 -3 -187 -20 -369 -36 -181 -17 -399 -37 -484 -46 -84 -8
-155 -13 -158 -11 -2 3 5 87 16 188 11 101 32 294 46 429 24 223 28 247 48
264 67 56 137 128 137 140 0 24 -22 33 -135 55 -60 13 -144 31 -187 42 -91 23
-117 24 -124 5z"/>
<path d="M1296 1642 c-4 -7 -32 -216 -50 -373 -5 -45 8 -69 37 -69 28 0 424
135 443 151 30 25 15 47 -68 99 -172 106 -333 200 -345 200 -6 0 -14 -4 -17
-8z m169 -213 c42 -23 75 -43 73 -44 -6 -6 -162 -44 -166 -40 -5 4 8 125 13
125 2 0 38 -19 80 -41z"/>
</g>
</svg>
