<?xml version="1.0" standalone="no"?>
<!DOCTYPE svg PUBLIC "-//W3C//DTD SVG 20010904//EN"
 "http://www.w3.org/TR/2001/REC-SVG-20010904/DTD/svg10.dtd">
<svg version="1.0" xmlns="http://www.w3.org/2000/svg"
 width="241pt" height="241pt" viewBox="0 0 241 241"
 preserveAspectRatio="xMidYMid meet">
<metadata>
Created by Potrace Professional 1.0c
</metadata>
<g transform="translate(0,241) scale(0.100000,-0.100000)"
fill="#000000" stroke="none">
<path d="M1340 1578 l-235 -90 -225 -23 -225 -22 -195 -102 c-107 -56 -201
-108 -209 -116 -13 -12 -10 -21 18 -67 18 -29 69 -101 114 -160 l81 -107 65
-15 c36 -9 143 -29 236 -46 168 -29 229 -40 477 -82 l128 -22 240 40 241 39
68 110 c186 298 241 390 241 400 0 9 -147 232 -219 332 -15 22 -22 22 -191 22
l-175 0 -235 -91z m595 -145 l83 -118 -21 -35 c-89 -147 -142 -229 -144 -222
-4 18 -10 502 -6 498 3 -2 42 -58 88 -123z m-194 -10 c2 -49 2 -171 -1 -272
l-5 -184 -175 -39 -175 -38 -330 54 c-181 30 -352 57 -380 61 -96 11 -101 14
-149 75 -32 41 -46 68 -46 90 0 29 5 33 105 82 l105 51 157 8 c87 4 204 8 260
9 99 0 106 1 204 45 156 69 364 142 410 144 14 1 17 -14 20 -86z"/>
</g>
</svg>
