<?xml version="1.0" standalone="no"?>
<!DOCTYPE svg PUBLIC "-//W3C//DTD SVG 20010904//EN"
 "http://www.w3.org/TR/2001/REC-SVG-20010904/DTD/svg10.dtd">
<svg version="1.0" xmlns="http://www.w3.org/2000/svg"
 width="241pt" height="241pt" viewBox="0 0 241 241"
 preserveAspectRatio="xMidYMid meet">
<metadata>
Created by Potrace Professional 1.0c
</metadata>
<g transform="translate(0,241) scale(0.100000,-0.100000)"
fill="#000000" stroke="none">
<path d="M1782 1620 c-24 -28 -79 -71 -130 -101 -48 -29 -119 -74 -159 -101
-40 -26 -75 -48 -78 -48 -3 0 -33 -18 -65 -40 -32 -22 -62 -40 -65 -40 -4 0
-67 22 -140 50 -74 27 -181 66 -240 86 l-106 37 -45 -33 -45 -32 -117 18 -117
17 -122 -129 -123 -128 62 -63 c92 -93 107 -89 188 57 29 52 54 96 55 98 2 2
83 -12 181 -31 99 -19 256 -50 351 -68 l172 -32 35 -111 c20 -61 36 -114 36
-117 0 -4 -33 1 -72 11 -40 11 -138 26 -218 34 -279 30 -446 47 -531 53 l-85
6 -30 -39 c-17 -22 -54 -74 -83 -117 -44 -65 -60 -81 -110 -107 -32 -16 -61
-36 -64 -44 -8 -19 169 -148 197 -144 13 2 25 20 37 57 11 30 44 88 75 130 32
42 58 77 59 78 1 2 37 -2 81 -7 43 -5 176 -19 294 -30 354 -33 397 -44 544
-144 39 -26 75 -45 80 -43 6 3 55 35 109 71 60 42 97 74 97 84 0 13 -24 28
-82 53 l-82 34 -49 150 c-26 82 -45 155 -43 162 3 7 26 25 52 41 26 15 109 66
186 114 l140 88 58 -15 c85 -22 91 -21 83 18 -22 116 -92 269 -122 267 -3 -1
-25 -23 -49 -50z"/>
<path d="M2014 1016 c-4 -11 25 -163 42 -218 3 -10 13 -18 22 -18 23 0 174
185 170 208 -3 17 -22 21 -171 35 -42 4 -60 2 -63 -7z"/>
</g>
</svg>
