<?xml version="1.0" standalone="no"?>
<!DOCTYPE svg PUBLIC "-//W3C//DTD SVG 20010904//EN"
 "http://www.w3.org/TR/2001/REC-SVG-20010904/DTD/svg10.dtd">
<svg version="1.0" xmlns="http://www.w3.org/2000/svg"
 width="241pt" height="241pt" viewBox="0 0 241 241"
 preserveAspectRatio="xMidYMid meet">
<metadata>
Created by Potrace Professional 1.0c
</metadata>
<g transform="translate(0,241) scale(0.100000,-0.100000)"
fill="#000000" stroke="none">
<path d="M1600 2037 c1 -12 9 -62 19 -110 l19 -88 -124 -337 c-68 -185 -149
-406 -180 -490 -31 -83 -60 -154 -64 -157 -5 -3 -200 27 -435 66 -234 39 -429
69 -432 66 -4 -5 279 -633 290 -644 2 -1 158 68 347 155 340 156 345 158 388
148 54 -12 58 -8 67 93 6 62 36 157 167 526 l159 450 91 87 c50 49 89 90 87
93 -5 4 -236 100 -351 146 l-48 19 0 -23z m-680 -1272 c129 -20 242 -39 250
-42 16 -5 -73 -53 -276 -148 l-111 -53 -71 144 c-65 130 -70 144 -50 139 13
-2 129 -21 258 -40z"/>
</g>
</svg>
