<?xml version="1.0" standalone="no"?>
<!DOCTYPE svg PUBLIC "-//W3C//DTD SVG 20010904//EN"
 "http://www.w3.org/TR/2001/REC-SVG-20010904/DTD/svg10.dtd">
<svg version="1.0" xmlns="http://www.w3.org/2000/svg"
 width="241pt" height="241pt" viewBox="0 0 241 241"
 preserveAspectRatio="xMidYMid meet">
<metadata>
Created by Potrace Professional 1.0c
</metadata>
<g transform="translate(0,241) scale(0.100000,-0.100000)"
fill="#000000" stroke="none">
<path d="M590 1939 c-58 -32 -109 -60 -113 -62 -6 -2 96 -290 109 -305 1 -2
26 10 55 27 l52 29 48 -18 c289 -114 562 -328 767 -601 l72 -96 0 -131 0 -131
-32 5 c-328 59 -524 132 -675 252 l-43 33 0 70 c0 38 -4 69 -8 69 -5 0 -47
-27 -93 -61 -71 -51 -93 -74 -141 -149 l-58 -90 23 -13 c185 -114 530 -251
732 -291 61 -12 597 -76 638 -76 4 0 5 15 2 33 -4 25 -55 703 -55 737 0 5 -51
21 -112 35 l-113 27 -55 66 c-147 175 -232 251 -399 355 -90 57 -275 150 -351
177 -28 10 -44 27 -80 88 -25 41 -49 77 -55 78 -5 1 -57 -24 -115 -57z m1200
-1164 l0 -125 -45 0 -45 0 0 125 0 125 45 0 45 0 0 -125z"/>
</g>
</svg>
