<?xml version="1.0" standalone="no"?>
<!DOCTYPE svg PUBLIC "-//W3C//DTD SVG 20010904//EN"
 "http://www.w3.org/TR/2001/REC-SVG-20010904/DTD/svg10.dtd">
<svg version="1.0" xmlns="http://www.w3.org/2000/svg"
 width="241pt" height="241pt" viewBox="0 0 241 241"
 preserveAspectRatio="xMidYMid meet">
<metadata>
Created by Potrace Professional 1.0c
</metadata>
<g transform="translate(0,241) scale(0.100000,-0.100000)"
fill="#000000" stroke="none">
<path d="M1990 1619 c-47 -39 -123 -69 -174 -69 l-48 0 7 -57 c4 -31 9 -61 11
-68 3 -6 -17 -18 -47 -27 l-51 -17 7 22 c14 49 14 49 -95 73 -58 13 -115 26
-126 29 -18 4 -24 -3 -39 -43 -10 -26 -21 -51 -26 -56 -4 -5 -57 11 -119 34
-66 26 -114 39 -120 34 -5 -5 -41 -69 -80 -141 l-72 -133 -165 -115 c-91 -64
-171 -114 -177 -112 -11 5 -192 148 -279 220 l-48 41 -50 -50 c-28 -27 -68
-72 -90 -101 -58 -74 -48 -87 74 -103 l94 -12 129 -94 c71 -52 139 -99 150
-105 18 -9 67 6 307 96 225 84 286 111 290 127 3 11 -6 53 -21 94 l-26 75 27
26 26 27 137 -59 137 -58 170 38 c250 55 225 43 280 134 43 73 51 81 85 87
113 19 168 42 159 66 -5 15 -193 216 -202 217 -5 0 -21 -9 -35 -20z"/>
</g>
</svg>
