<?xml version="1.0" standalone="no"?>
<!DOCTYPE svg PUBLIC "-//W3C//DTD SVG 20010904//EN"
 "http://www.w3.org/TR/2001/REC-SVG-20010904/DTD/svg10.dtd">
<svg version="1.0" xmlns="http://www.w3.org/2000/svg"
 width="241pt" height="241pt" viewBox="0 0 241 241"
 preserveAspectRatio="xMidYMid meet">
<metadata>
Created by Potrace Professional 1.0c
</metadata>
<g transform="translate(0,241) scale(0.100000,-0.100000)"
fill="#000000" stroke="none">
<path d="M455 1879 l-90 -40 -22 -137 c-14 -86 -18 -142 -13 -153 5 -9 123
-84 262 -168 244 -145 255 -153 301 -217 l49 -66 59 102 c32 56 59 103 59 105
0 2 -30 13 -67 26 -81 26 -418 248 -426 279 -3 13 8 36 30 65 l34 45 -37 100
c-20 55 -39 100 -43 99 -3 0 -47 -18 -96 -40z"/>
<path d="M1147 1478 c-63 -41 -97 -69 -97 -81 0 -10 32 -58 71 -107 54 -69 76
-90 95 -90 28 0 26 -6 55 178 16 104 18 136 9 148 -7 7 -18 14 -24 14 -6 0
-55 -28 -109 -62z"/>
<path d="M1282 1231 l-53 -47 63 -67 63 -67 60 55 60 54 -60 60 c-33 34 -64
61 -70 61 -5 -1 -34 -22 -63 -49z"/>
<path d="M1519 1183 c-5 -16 -32 -71 -59 -124 -41 -79 -47 -99 -37 -111 11
-14 24 -12 122 17 61 19 126 34 146 34 l37 1 16 -86 16 -85 -31 -61 c-24 -48
-28 -63 -17 -69 84 -55 310 -179 325 -179 16 0 33 21 68 80 26 44 45 86 42 94
-3 7 -61 43 -129 80 l-124 68 4 69 c3 38 1 98 -2 132 -7 57 -10 65 -39 83 -28
16 -279 84 -315 84 -7 0 -17 -12 -23 -27z"/>
</g>
</svg>
