<?xml version="1.0" standalone="no"?>
<!DOCTYPE svg PUBLIC "-//W3C//DTD SVG 20010904//EN"
 "http://www.w3.org/TR/2001/REC-SVG-20010904/DTD/svg10.dtd">
<svg version="1.0" xmlns="http://www.w3.org/2000/svg"
 width="241pt" height="241pt" viewBox="0 0 241 241"
 preserveAspectRatio="xMidYMid meet">
<metadata>
Created by Potrace Professional 1.0c
</metadata>
<g transform="translate(0,241) scale(0.100000,-0.100000)"
fill="#000000" stroke="none">
<path d="M322 1928 c-160 -110 -162 -112 -162 -148 l0 -38 101 -38 100 -38 66
-95 c200 -290 456 -538 739 -716 176 -111 426 -227 624 -291 77 -25 94 -35
184 -115 90 -79 103 -87 130 -82 17 3 33 7 35 9 2 2 26 97 53 210 l50 207 -26
25 -25 25 -132 -47 -132 -48 -116 43 c-455 168 -873 483 -1211 912 l-62 79 7
113 7 113 -30 16 c-17 9 -33 16 -34 16 -2 0 -77 -50 -166 -112z"/>
</g>
</svg>
