<?xml version="1.0" standalone="no"?>
<!DOCTYPE svg PUBLIC "-//W3C//DTD SVG 20010904//EN"
 "http://www.w3.org/TR/2001/REC-SVG-20010904/DTD/svg10.dtd">
<svg version="1.0" xmlns="http://www.w3.org/2000/svg"
 width="241pt" height="241pt" viewBox="0 0 241 241"
 preserveAspectRatio="xMidYMid meet">
<metadata>
Created by Potrace Professional 1.0c
</metadata>
<g transform="translate(0,241) scale(0.100000,-0.100000)"
fill="#000000" stroke="none">
<path d="M580 2052 c0 -17 105 -356 168 -542 117 -347 385 -1106 401 -1138
l17 -33 87 56 c48 30 126 80 175 111 80 51 90 55 132 50 25 -3 93 -8 153 -12
90 -6 107 -4 107 8 0 48 -57 418 -66 427 -2 2 -108 -56 -235 -128 -127 -73
-232 -131 -234 -129 -1 2 -65 169 -140 373 -76 204 -162 435 -192 514 -30 79
-52 145 -50 147 2 2 68 -10 148 -27 79 -16 188 -39 243 -50 99 -19 99 -19 203
-102 161 -127 143 -124 143 -20 0 85 -13 297 -26 410 -6 62 4 64 -141 -29
l-93 -60 -82 17 c-46 9 -175 39 -288 66 -113 28 -248 59 -300 70 -52 11 -103
22 -112 25 -10 3 -18 1 -18 -4z"/>
</g>
</svg>
