<?xml version="1.0" encoding="UTF-8" standalone="no"?>
<!-- Created with Inkscape (http://www.inkscape.org/) -->
<svg
   xmlns:dc="http://purl.org/dc/elements/1.1/"
   xmlns:cc="http://web.resource.org/cc/"
   xmlns:rdf="http://www.w3.org/1999/02/22-rdf-syntax-ns#"
   xmlns:svg="http://www.w3.org/2000/svg"
   xmlns="http://www.w3.org/2000/svg"
   xmlns:sodipodi="http://sodipodi.sourceforge.net/DTD/sodipodi-0.dtd"
   xmlns:inkscape="http://www.inkscape.org/namespaces/inkscape"
   id="svg3568"
   sodipodi:version="0.32"
   inkscape:version="0.44.1"
   width="120"
   height="120"
   version="1.0"
   sodipodi:docbase="E:\Bryan\Temp\SG Glyphs"
   sodipodi:docname="AtlantisGlyph10.svg">
  <metadata
     id="metadata3573">
    <rdf:RDF>
      <cc:Work
         rdf:about="">
        <dc:format>image/svg+xml</dc:format>
        <dc:type
           rdf:resource="http://purl.org/dc/dcmitype/StillImage" />
      </cc:Work>
    </rdf:RDF>
  </metadata>
  <defs
     id="defs3571" />
  <sodipodi:namedview
     inkscape:window-height="721"
     inkscape:window-width="1024"
     inkscape:pageshadow="2"
     inkscape:pageopacity="0.0"
     guidetolerance="10.0"
     gridtolerance="10.0"
     objecttolerance="10.0"
     borderopacity="1.0"
     bordercolor="#666666"
     pagecolor="#ffffff"
     id="base"
     inkscape:zoom="4.3833333"
     inkscape:cx="60"
     inkscape:cy="60"
     inkscape:window-x="-4"
     inkscape:window-y="-4"
     inkscape:current-layer="svg3568" />
  <path
     sodipodi:type="arc"
     style="opacity:1;fill:black;fill-opacity:1;fill-rule:evenodd;stroke:none;stroke-width:2.5;stroke-linecap:butt;stroke-linejoin:miter;stroke-miterlimit:4;stroke-dasharray:none;stroke-opacity:1"
     id="path1932"
     sodipodi:cx="20.988594"
     sodipodi:cy="34.676807"
     sodipodi:rx="4"
     sodipodi:ry="4"
     d="M 24.988594 34.676807 A 4 4 0 1 1  16.988594,34.676807 A 4 4 0 1 1  24.988594 34.676807 z"
     transform="translate(-7.528518,47.68061)" />
  <path
     sodipodi:type="arc"
     style="opacity:1;fill:black;fill-opacity:1;fill-rule:evenodd;stroke:none;stroke-width:2.5;stroke-linecap:butt;stroke-linejoin:miter;stroke-miterlimit:4;stroke-dasharray:none;stroke-opacity:1"
     id="path3578"
     sodipodi:cx="20.988594"
     sodipodi:cy="34.676807"
     sodipodi:rx="4"
     sodipodi:ry="4"
     d="M 24.988594 34.676807 A 4 4 0 1 1  16.988594,34.676807 A 4 4 0 1 1  24.988594 34.676807 z"
     transform="translate(5.247147,28.51711)" />
  <path
     sodipodi:type="arc"
     style="opacity:1;fill:black;fill-opacity:1;fill-rule:evenodd;stroke:none;stroke-width:2.5;stroke-linecap:butt;stroke-linejoin:miter;stroke-miterlimit:4;stroke-dasharray:none;stroke-opacity:1"
     id="path3580"
     sodipodi:cx="20.988594"
     sodipodi:cy="34.676807"
     sodipodi:rx="4"
     sodipodi:ry="4"
     d="M 24.988594 34.676807 A 4 4 0 1 1  16.988594,34.676807 A 4 4 0 1 1  24.988594 34.676807 z"
     transform="translate(26.0076,36.5019)" />
  <path
     sodipodi:type="arc"
     style="opacity:1;fill:black;fill-opacity:1;fill-rule:evenodd;stroke:none;stroke-width:2.5;stroke-linecap:butt;stroke-linejoin:miter;stroke-miterlimit:4;stroke-dasharray:none;stroke-opacity:1"
     id="path3582"
     sodipodi:cx="20.988594"
     sodipodi:cy="34.676807"
     sodipodi:rx="4"
     sodipodi:ry="4"
     d="M 24.988594 34.676807 A 4 4 0 1 1  16.988594,34.676807 A 4 4 0 1 1  24.988594 34.676807 z"
     transform="translate(21.21673,49.27757)" />
  <path
     sodipodi:type="arc"
     style="opacity:1;fill:black;fill-opacity:1;fill-rule:evenodd;stroke:none;stroke-width:2.5;stroke-linecap:butt;stroke-linejoin:miter;stroke-miterlimit:4;stroke-dasharray:none;stroke-opacity:1"
     id="path3584"
     sodipodi:cx="20.988594"
     sodipodi:cy="34.676807"
     sodipodi:rx="4"
     sodipodi:ry="4"
     d="M 24.988594 34.676807 A 4 4 0 1 1  16.988594,34.676807 A 4 4 0 1 1  24.988594 34.676807 z"
     transform="translate(26.69201,18.93536)" />
  <path
     sodipodi:type="arc"
     style="opacity:1;fill:black;fill-opacity:1;fill-rule:evenodd;stroke:none;stroke-width:2.5;stroke-linecap:butt;stroke-linejoin:miter;stroke-miterlimit:4;stroke-dasharray:none;stroke-opacity:1"
     id="path3586"
     sodipodi:cx="20.988594"
     sodipodi:cy="34.676807"
     sodipodi:rx="4"
     sodipodi:ry="4"
     d="M 24.988594 34.676807 A 4 4 0 1 1  16.988594,34.676807 A 4 4 0 1 1  24.988594 34.676807 z"
     transform="translate(21.21673,3.650189)" />
  <path
     sodipodi:type="arc"
     style="opacity:1;fill:black;fill-opacity:1;fill-rule:evenodd;stroke:none;stroke-width:2.5;stroke-linecap:butt;stroke-linejoin:miter;stroke-miterlimit:4;stroke-dasharray:none;stroke-opacity:1"
     id="path3588"
     sodipodi:cx="20.988594"
     sodipodi:cy="34.676807"
     sodipodi:rx="4"
     sodipodi:ry="4"
     d="M 24.988594 34.676807 A 4 4 0 1 1  16.988594,34.676807 A 4 4 0 1 1  24.988594 34.676807 z"
     transform="translate(44.25855,13.46007)" />
  <path
     sodipodi:type="arc"
     style="opacity:1;fill:black;fill-opacity:1;fill-rule:evenodd;stroke:none;stroke-width:2.5;stroke-linecap:butt;stroke-linejoin:miter;stroke-miterlimit:4;stroke-dasharray:none;stroke-opacity:1"
     id="path3590"
     sodipodi:cx="20.988594"
     sodipodi:cy="34.676807"
     sodipodi:rx="4"
     sodipodi:ry="4"
     d="M 24.988594 34.676807 A 4 4 0 1 1  16.988594,34.676807 A 4 4 0 1 1  24.988594 34.676807 z"
     transform="translate(63.65019,16.42585)" />
  <path
     sodipodi:type="arc"
     style="opacity:1;fill:black;fill-opacity:1;fill-rule:evenodd;stroke:none;stroke-width:2.5;stroke-linecap:butt;stroke-linejoin:miter;stroke-miterlimit:4;stroke-dasharray:none;stroke-opacity:1"
     id="path3592"
     sodipodi:cx="20.988594"
     sodipodi:cy="34.676807"
     sodipodi:rx="4"
     sodipodi:ry="4"
     d="M 24.988594 34.676807 A 4 4 0 1 1  16.988594,34.676807 A 4 4 0 1 1  24.988594 34.676807 z"
     transform="translate(53.15589,42.20532)" />
  <path
     sodipodi:type="arc"
     style="opacity:1;fill:black;fill-opacity:1;fill-rule:evenodd;stroke:none;stroke-width:2.5;stroke-linecap:butt;stroke-linejoin:miter;stroke-miterlimit:4;stroke-dasharray:none;stroke-opacity:1"
     id="path3594"
     sodipodi:cx="20.988594"
     sodipodi:cy="34.676807"
     sodipodi:rx="4"
     sodipodi:ry="4"
     d="M 24.988594 34.676807 A 4 4 0 1 1  16.988594,34.676807 A 4 4 0 1 1  24.988594 34.676807 z"
     transform="translate(69.35361,37.41445)" />
  <path
     sodipodi:type="arc"
     style="opacity:1;fill:black;fill-opacity:1;fill-rule:evenodd;stroke:none;stroke-width:2.5;stroke-linecap:butt;stroke-linejoin:miter;stroke-miterlimit:4;stroke-dasharray:none;stroke-opacity:1"
     id="path3596"
     sodipodi:cx="20.988594"
     sodipodi:cy="34.676807"
     sodipodi:rx="4"
     sodipodi:ry="4"
     d="M 24.988594 34.676807 A 4 4 0 1 1  16.988594,34.676807 A 4 4 0 1 1  24.988594 34.676807 z"
     transform="translate(86.69201,45.39924)" />
  <path
     style="fill:none;fill-rule:evenodd;stroke:black;stroke-width:1px;stroke-linecap:butt;stroke-linejoin:miter;stroke-opacity:1"
     d="M 41.977186,83.954373 L 46.768061,70.95057 L 26.007605,62.965779 L 47.452471,53.38403 L 65.247148,48.136882 L 84.638783,51.102662 L 74.144487,76.653992 L 90.342205,71.863118 L 107.90875,80.076046"
     id="path3598" />
  <path
     style="fill:none;fill-rule:evenodd;stroke:black;stroke-width:1px;stroke-linecap:butt;stroke-linejoin:miter;stroke-opacity:1"
     d="M 42.205323,38.326996 L 47.680608,53.38403"
     id="path3600" />
  <path
     style="fill:none;fill-rule:evenodd;stroke:black;stroke-width:1px;stroke-linecap:butt;stroke-linejoin:miter;stroke-opacity:1"
     d="M 26.235741,63.193916 L 13.460076,82.357414"
     id="path3602" />
</svg>
