<?xml version="1.0" encoding="UTF-8" standalone="no"?>
<!-- Created with Inkscape (http://www.inkscape.org/) -->
<svg
   xmlns:dc="http://purl.org/dc/elements/1.1/"
   xmlns:cc="http://web.resource.org/cc/"
   xmlns:rdf="http://www.w3.org/1999/02/22-rdf-syntax-ns#"
   xmlns:svg="http://www.w3.org/2000/svg"
   xmlns="http://www.w3.org/2000/svg"
   xmlns:sodipodi="http://sodipodi.sourceforge.net/DTD/sodipodi-0.dtd"
   xmlns:inkscape="http://www.inkscape.org/namespaces/inkscape"
   id="svg5410"
   sodipodi:version="0.32"
   inkscape:version="0.44.1"
   width="120"
   height="120"
   version="1.0"
   sodipodi:docbase="E:\Bryan\Temp\SG Glyphs"
   sodipodi:docname="AtlantisGlyph35.svg">
  <metadata
     id="metadata5415">
    <rdf:RDF>
      <cc:Work
         rdf:about="">
        <dc:format>image/svg+xml</dc:format>
        <dc:type
           rdf:resource="http://purl.org/dc/dcmitype/StillImage" />
      </cc:Work>
    </rdf:RDF>
  </metadata>
  <defs
     id="defs5413" />
  <sodipodi:namedview
     inkscape:window-height="721"
     inkscape:window-width="1024"
     inkscape:pageshadow="2"
     inkscape:pageopacity="0.0"
     guidetolerance="10.0"
     gridtolerance="10.0"
     objecttolerance="10.0"
     borderopacity="1.0"
     bordercolor="#666666"
     pagecolor="#ffffff"
     id="base"
     inkscape:zoom="4.3833333"
     inkscape:cx="60"
     inkscape:cy="60"
     inkscape:window-x="-4"
     inkscape:window-y="-4"
     inkscape:current-layer="svg5410" />
  <path
     sodipodi:type="arc"
     style="opacity:1;fill:black;fill-opacity:1;fill-rule:evenodd;stroke:none;stroke-width:2.5;stroke-linecap:butt;stroke-linejoin:miter;stroke-miterlimit:4;stroke-dasharray:none;stroke-opacity:1"
     id="path1932"
     sodipodi:cx="20.988594"
     sodipodi:cy="34.676807"
     sodipodi:rx="4"
     sodipodi:ry="4"
     d="M 24.988594 34.676807 A 4 4 0 1 1  16.988594,34.676807 A 4 4 0 1 1  24.988594 34.676807 z"
     transform="translate(-2.96578,24.63878)" />
  <path
     sodipodi:type="arc"
     style="opacity:1;fill:black;fill-opacity:1;fill-rule:evenodd;stroke:none;stroke-width:2.5;stroke-linecap:butt;stroke-linejoin:miter;stroke-miterlimit:4;stroke-dasharray:none;stroke-opacity:1"
     id="path5420"
     sodipodi:cx="20.988594"
     sodipodi:cy="34.676807"
     sodipodi:rx="4"
     sodipodi:ry="4"
     d="M 24.988594 34.676807 A 4 4 0 1 1  16.988594,34.676807 A 4 4 0 1 1  24.988594 34.676807 z"
     transform="translate(-10.26616,7.756653)" />
  <path
     sodipodi:type="arc"
     style="opacity:1;fill:black;fill-opacity:1;fill-rule:evenodd;stroke:none;stroke-width:2.5;stroke-linecap:butt;stroke-linejoin:miter;stroke-miterlimit:4;stroke-dasharray:none;stroke-opacity:1"
     id="path5422"
     sodipodi:cx="20.988594"
     sodipodi:cy="34.676807"
     sodipodi:rx="4"
     sodipodi:ry="4"
     d="M 24.988594 34.676807 A 4 4 0 1 1  16.988594,34.676807 A 4 4 0 1 1  24.988594 34.676807 z"
     transform="translate(16.19772,6.844105)" />
  <path
     sodipodi:type="arc"
     style="opacity:1;fill:black;fill-opacity:1;fill-rule:evenodd;stroke:none;stroke-width:2.5;stroke-linecap:butt;stroke-linejoin:miter;stroke-miterlimit:4;stroke-dasharray:none;stroke-opacity:1"
     id="path5424"
     sodipodi:cx="20.988594"
     sodipodi:cy="34.676807"
     sodipodi:rx="4"
     sodipodi:ry="4"
     d="M 24.988594 34.676807 A 4 4 0 1 1  16.988594,34.676807 A 4 4 0 1 1  24.988594 34.676807 z"
     transform="translate(15.51331,23.72623)" />
  <path
     sodipodi:type="arc"
     style="opacity:1;fill:black;fill-opacity:1;fill-rule:evenodd;stroke:none;stroke-width:2.5;stroke-linecap:butt;stroke-linejoin:miter;stroke-miterlimit:4;stroke-dasharray:none;stroke-opacity:1"
     id="path5426"
     sodipodi:cx="20.988594"
     sodipodi:cy="34.676807"
     sodipodi:rx="4"
     sodipodi:ry="4"
     d="M 24.988594 34.676807 A 4 4 0 1 1  16.988594,34.676807 A 4 4 0 1 1  24.988594 34.676807 z"
     transform="translate(6.615969,44.48669)" />
  <path
     sodipodi:type="arc"
     style="opacity:1;fill:black;fill-opacity:1;fill-rule:evenodd;stroke:none;stroke-width:2.5;stroke-linecap:butt;stroke-linejoin:miter;stroke-miterlimit:4;stroke-dasharray:none;stroke-opacity:1"
     id="path5428"
     sodipodi:cx="20.988594"
     sodipodi:cy="34.676807"
     sodipodi:rx="4"
     sodipodi:ry="4"
     d="M 24.988594 34.676807 A 4 4 0 1 1  16.988594,34.676807 A 4 4 0 1 1  24.988594 34.676807 z"
     transform="translate(22.81369,36.5019)" />
  <path
     sodipodi:type="arc"
     style="opacity:1;fill:black;fill-opacity:1;fill-rule:evenodd;stroke:none;stroke-width:2.5;stroke-linecap:butt;stroke-linejoin:miter;stroke-miterlimit:4;stroke-dasharray:none;stroke-opacity:1"
     id="path5430"
     sodipodi:cx="20.988594"
     sodipodi:cy="34.676807"
     sodipodi:rx="4"
     sodipodi:ry="4"
     d="M 24.988594 34.676807 A 4 4 0 1 1  16.988594,34.676807 A 4 4 0 1 1  24.988594 34.676807 z"
     transform="translate(35.81749,42.43346)" />
  <path
     sodipodi:type="arc"
     style="opacity:1;fill:black;fill-opacity:1;fill-rule:evenodd;stroke:none;stroke-width:2.5;stroke-linecap:butt;stroke-linejoin:miter;stroke-miterlimit:4;stroke-dasharray:none;stroke-opacity:1"
     id="path5432"
     sodipodi:cx="20.988594"
     sodipodi:cy="34.676807"
     sodipodi:rx="4"
     sodipodi:ry="4"
     d="M 24.988594 34.676807 A 4 4 0 1 1  16.988594,34.676807 A 4 4 0 1 1  24.988594 34.676807 z"
     transform="translate(37.18631,28.51711)" />
  <path
     sodipodi:type="arc"
     style="opacity:1;fill:black;fill-opacity:1;fill-rule:evenodd;stroke:none;stroke-width:2.5;stroke-linecap:butt;stroke-linejoin:miter;stroke-miterlimit:4;stroke-dasharray:none;stroke-opacity:1"
     id="path5434"
     sodipodi:cx="20.988594"
     sodipodi:cy="34.676807"
     sodipodi:rx="4"
     sodipodi:ry="4"
     d="M 24.988594 34.676807 A 4 4 0 1 1  16.988594,34.676807 A 4 4 0 1 1  24.988594 34.676807 z"
     transform="translate(52.92776,26.92015)" />
  <path
     sodipodi:type="arc"
     style="opacity:1;fill:black;fill-opacity:1;fill-rule:evenodd;stroke:none;stroke-width:2.5;stroke-linecap:butt;stroke-linejoin:miter;stroke-miterlimit:4;stroke-dasharray:none;stroke-opacity:1"
     id="path5436"
     sodipodi:cx="20.988594"
     sodipodi:cy="34.676807"
     sodipodi:rx="4"
     sodipodi:ry="4"
     d="M 24.988594 34.676807 A 4 4 0 1 1  16.988594,34.676807 A 4 4 0 1 1  24.988594 34.676807 z"
     transform="translate(51.78707,44.48669)" />
  <path
     sodipodi:type="arc"
     style="opacity:1;fill:black;fill-opacity:1;fill-rule:evenodd;stroke:none;stroke-width:2.5;stroke-linecap:butt;stroke-linejoin:miter;stroke-miterlimit:4;stroke-dasharray:none;stroke-opacity:1"
     id="path5438"
     sodipodi:cx="20.988594"
     sodipodi:cy="34.676807"
     sodipodi:rx="4"
     sodipodi:ry="4"
     d="M 24.988594 34.676807 A 4 4 0 1 1  16.988594,34.676807 A 4 4 0 1 1  24.988594 34.676807 z"
     transform="translate(89.88593,42.20532)" />
  <path
     sodipodi:type="arc"
     style="opacity:1;fill:black;fill-opacity:1;fill-rule:evenodd;stroke:none;stroke-width:2.5;stroke-linecap:butt;stroke-linejoin:miter;stroke-miterlimit:4;stroke-dasharray:none;stroke-opacity:1"
     id="path5440"
     sodipodi:cx="20.988594"
     sodipodi:cy="34.676807"
     sodipodi:rx="4"
     sodipodi:ry="4"
     d="M 24.988594 34.676807 A 4 4 0 1 1  16.988594,34.676807 A 4 4 0 1 1  24.988594 34.676807 z"
     transform="translate(81.21673,23.72623)" />
  <path
     sodipodi:type="arc"
     style="opacity:1;fill:black;fill-opacity:1;fill-rule:evenodd;stroke:none;stroke-width:2.5;stroke-linecap:butt;stroke-linejoin:miter;stroke-miterlimit:4;stroke-dasharray:none;stroke-opacity:1"
     id="path5442"
     sodipodi:cx="20.988594"
     sodipodi:cy="34.676807"
     sodipodi:rx="4"
     sodipodi:ry="4"
     d="M 24.988594 34.676807 A 4 4 0 1 1  16.988594,34.676807 A 4 4 0 1 1  24.988594 34.676807 z"
     transform="translate(67.52852,30.11407)" />
  <path
     sodipodi:type="arc"
     style="opacity:1;fill:black;fill-opacity:1;fill-rule:evenodd;stroke:none;stroke-width:2.5;stroke-linecap:butt;stroke-linejoin:miter;stroke-miterlimit:4;stroke-dasharray:none;stroke-opacity:1"
     id="path5444"
     sodipodi:cx="20.988594"
     sodipodi:cy="34.676807"
     sodipodi:rx="4"
     sodipodi:ry="4"
     d="M 24.988594 34.676807 A 4 4 0 1 1  16.988594,34.676807 A 4 4 0 1 1  24.988594 34.676807 z"
     transform="translate(77.11027,10.03802)" />
  <path
     sodipodi:type="arc"
     style="opacity:1;fill:black;fill-opacity:1;fill-rule:evenodd;stroke:none;stroke-width:2.5;stroke-linecap:butt;stroke-linejoin:miter;stroke-miterlimit:4;stroke-dasharray:none;stroke-opacity:1"
     id="path5446"
     sodipodi:cx="20.988594"
     sodipodi:cy="34.676807"
     sodipodi:rx="4"
     sodipodi:ry="4"
     d="M 24.988594 34.676807 A 4 4 0 1 1  16.988594,34.676807 A 4 4 0 1 1  24.988594 34.676807 z"
     transform="translate(88.51711,14.14449)" />
  <path
     style="fill:none;fill-rule:evenodd;stroke:black;stroke-width:1px;stroke-linecap:butt;stroke-linejoin:miter;stroke-opacity:1"
     d="M 17.794677,59.087452 L 10.494297,41.977186 L 37.186312,41.520913 L 36.273764,58.174905"
     id="path5448" />
  <path
     style="fill:none;fill-rule:evenodd;stroke:black;stroke-width:1px;stroke-linecap:butt;stroke-linejoin:miter;stroke-opacity:1"
     d="M 27.376426,79.163498 L 43.574144,71.178707 L 56.806084,77.110266 L 57.946768,63.193916 L 73.91635,61.596958 L 72.547529,78.935361 L 110.87452,76.882129 L 102.20532,58.403042 L 88.51711,64.790875 L 97.870722,44.714829 L 109.27757,49.04943"
     id="path5450"
     sodipodi:nodetypes="ccccccccccc" />
</svg>
