<?xml version="1.0" standalone="no"?>
<!DOCTYPE svg PUBLIC "-//W3C//DTD SVG 20010904//EN"
 "http://www.w3.org/TR/2001/REC-SVG-20010904/DTD/svg10.dtd">
<svg version="1.0" xmlns="http://www.w3.org/2000/svg"
 width="241pt" height="241pt" viewBox="0 0 241 241"
 preserveAspectRatio="xMidYMid meet">
<metadata>
Created by Potrace Professional 1.0c
</metadata>
<g transform="translate(0,241) scale(0.100000,-0.100000)"
fill="#000000" stroke="none">
<path d="M827 2046 c-3 -8 -9 -173 -13 -367 l-7 -353 -55 -86 c-29 -47 -85
-131 -123 -187 -38 -56 -69 -107 -69 -113 0 -6 9 -36 20 -68 12 -31 36 -113
56 -182 l34 -125 -110 -107 c-60 -59 -110 -109 -110 -112 0 -4 113 -6 250 -6
l250 0 0 73 c0 95 -13 159 -66 339 l-44 148 44 77 c24 43 60 108 80 146 l37
67 167 0 167 -1 129 -217 129 -216 -6 -76 c-5 -85 -35 -165 -73 -201 -17 -16
-24 -33 -24 -61 l0 -38 230 0 c127 0 230 2 230 5 0 3 -29 42 -65 87 l-65 82 0
156 0 156 -36 60 c-20 32 -54 88 -74 124 -21 36 -65 109 -98 163 l-59 98 69
172 c91 227 191 507 184 515 -3 3 -120 11 -258 18 -500 25 -663 35 -689 40
-18 3 -28 0 -32 -10z m477 -171 c148 -8 271 -17 274 -19 2 -2 -22 -71 -53
-153 -31 -81 -64 -167 -72 -191 -8 -24 -22 -46 -30 -49 -7 -3 -106 -2 -218 2
l-205 7 0 112 c0 165 11 306 24 306 6 0 132 -7 280 -15z"/>
</g>
</svg>
