<?xml version="1.0" standalone="no"?>
<!DOCTYPE svg PUBLIC "-//W3C//DTD SVG 20010904//EN"
 "http://www.w3.org/TR/2001/REC-SVG-20010904/DTD/svg10.dtd">
<svg version="1.0" xmlns="http://www.w3.org/2000/svg"
 width="241pt" height="241pt" viewBox="0 0 241 241"
 preserveAspectRatio="xMidYMid meet">
<metadata>
Created by Potrace Professional 1.0c
</metadata>
<g transform="translate(0,241) scale(0.100000,-0.100000)"
fill="#000000" stroke="none">
<path d="M1785 2049 c-3 -8 -15 -44 -27 -80 -22 -64 -27 -69 -128 -151 -58
-47 -184 -144 -281 -215 l-175 -131 -95 19 c-143 29 -132 21 -127 94 6 72 41
144 94 196 l33 32 52 -22 c85 -35 123 -37 156 -10 44 37 233 240 233 250 0 5
-109 9 -241 9 l-242 0 -44 -36 c-25 -20 -122 -95 -216 -167 -95 -71 -171 -134
-169 -141 2 -6 32 -68 68 -139 35 -70 64 -135 64 -144 0 -9 -16 -91 -36 -182
-30 -136 -53 -206 -127 -391 -49 -124 -95 -227 -101 -229 -25 -9 -106 -100
-106 -118 0 -15 14 -26 51 -43 70 -29 272 -110 277 -110 3 0 2 44 -2 98 -6 87
-4 104 17 167 22 62 107 287 111 292 1 1 30 -9 65 -23 l62 -25 69 17 c69 18
70 18 98 -3 15 -11 57 -35 93 -53 96 -48 259 -141 302 -171 21 -15 56 -51 79
-79 33 -42 44 -50 52 -38 87 113 167 241 156 251 -3 3 -42 10 -87 15 -77 9
-93 16 -270 112 -103 56 -191 104 -194 108 -6 7 54 329 62 336 2 2 38 27 79
56 41 29 115 85 165 123 49 39 140 108 203 153 l113 82 80 7 c43 4 79 11 79
15 0 11 -40 60 -110 135 -30 33 -72 80 -92 104 -26 30 -39 40 -43 30z m-873
-266 c-46 -66 -57 -98 -62 -186 l-5 -88 -42 85 -42 85 82 65 c45 36 83 65 85
65 2 1 -5 -11 -16 -26z m154 -426 c1 -1 -12 -78 -30 -172 -31 -167 -32 -170
-56 -168 -62 7 -72 12 -66 41 3 15 17 92 32 171 l27 143 45 -6 c25 -3 46 -7
48 -9z"/>
</g>
</svg>
