<?xml version="1.0" standalone="no"?>
<!DOCTYPE svg PUBLIC "-//W3C//DTD SVG 20010904//EN"
 "http://www.w3.org/TR/2001/REC-SVG-20010904/DTD/svg10.dtd">
<svg version="1.0" xmlns="http://www.w3.org/2000/svg"
 width="241pt" height="241pt" viewBox="0 0 241 241"
 preserveAspectRatio="xMidYMid meet">
<metadata>
Created by Potrace Professional 1.0c
</metadata>
<g transform="translate(0,241) scale(0.100000,-0.100000)"
fill="#000000" stroke="none">
<path d="M1504 2118 c3 -13 12 -68 21 -124 l15 -100 -51 -240 c-28 -131 -53
-249 -56 -262 -3 -13 -12 -26 -19 -29 -7 -3 -99 10 -203 28 l-189 33 -53 108
c-43 88 -56 106 -65 94 -12 -17 -112 -314 -143 -424 l-20 -74 27 6 c15 3 73
29 129 57 l102 51 108 -25 c59 -14 156 -35 215 -47 l107 -22 15 -47 c22 -64
62 -268 75 -376 9 -73 8 -103 -5 -160 -8 -38 -17 -82 -21 -97 -7 -36 -8 -36
174 6 81 18 165 37 186 40 l38 7 -77 85 -77 86 -18 112 c-9 62 -31 182 -49
266 l-31 154 15 96 c9 52 22 156 31 230 26 232 38 287 72 323 35 37 113 151
113 165 0 5 -10 12 -22 16 -49 13 -337 86 -343 86 -3 0 -3 -10 -1 -22z"/>
<path d="M1033 994 l-203 -136 46 -58 c81 -104 56 -108 265 41 101 72 188 134
192 139 7 6 -87 151 -96 150 -1 0 -93 -62 -204 -136z"/>
<path d="M551 753 l-55 -4 175 -175 c95 -96 177 -174 181 -174 10 0 10 111 1
253 l-6 107 -121 -2 c-67 -1 -145 -3 -175 -5z m239 -124 l0 -60 -65 57 c-36
32 -65 59 -65 61 0 2 29 3 65 3 l65 0 0 -61z"/>
</g>
</svg>
