<?xml version="1.0" standalone="no"?>
<!DOCTYPE svg PUBLIC "-//W3C//DTD SVG 20010904//EN"
 "http://www.w3.org/TR/2001/REC-SVG-20010904/DTD/svg10.dtd">
<svg version="1.0" xmlns="http://www.w3.org/2000/svg"
 width="241pt" height="241pt" viewBox="0 0 241 241"
 preserveAspectRatio="xMidYMid meet">
<metadata>
Created by Potrace Professional 1.0c
</metadata>
<g transform="translate(0,241) scale(0.100000,-0.100000)"
fill="#000000" stroke="none">
<path d="M1260 2052 c0 -4 16 -48 36 -98 l37 -89 -7 -233 -7 -233 131 -138
131 -139 36 10 c19 5 37 7 39 5 6 -6 -44 -199 -54 -209 -4 -3 -49 -23 -100
-43 -63 -26 -99 -46 -115 -67 l-23 -29 -38 85 c-39 87 -54 105 -211 246 -39
34 -60 66 -90 133 -35 78 -42 87 -66 87 -24 0 -34 -13 -93 -116 -36 -64 -66
-120 -66 -123 0 -7 45 -43 219 -174 83 -63 84 -64 117 -152 18 -49 31 -91 28
-94 -9 -9 -139 -20 -340 -27 l-202 -7 -82 47 c-45 26 -83 46 -84 44 -5 -5 -16
-398 -12 -398 2 0 37 27 76 60 l72 60 251 0 c139 1 320 1 402 0 l150 -1 30 58
c40 78 91 132 145 156 25 11 79 44 121 73 l77 54 40 112 c59 168 152 457 152
474 0 27 -31 27 -177 -1 l-145 -28 -61 61 -60 61 9 183 9 183 48 78 c26 43 47
79 47 81 0 7 -50 16 -206 36 -87 11 -160 20 -161 20 -2 0 -3 -4 -3 -8z"/>
</g>
</svg>
