<?xml version="1.0" standalone="no"?>
<!DOCTYPE svg PUBLIC "-//W3C//DTD SVG 20010904//EN"
 "http://www.w3.org/TR/2001/REC-SVG-20010904/DTD/svg10.dtd">
<svg version="1.0" xmlns="http://www.w3.org/2000/svg"
 width="241pt" height="241pt" viewBox="0 0 241 241"
 preserveAspectRatio="xMidYMid meet">
<metadata>
Created by Potrace Professional 1.0c
</metadata>
<g transform="translate(0,241) scale(0.100000,-0.100000)"
fill="#000000" stroke="none">
<path d="M2054 2003 c-17 -10 -77 -50 -135 -89 -158 -107 -253 -158 -374 -200
l-110 -39 -250 1 c-178 0 -283 5 -364 17 -62 9 -115 18 -117 20 -2 1 -6 40
-10 85 l-7 82 -31 0 c-68 0 -360 -30 -367 -37 -7 -8 -39 -185 -39 -215 0 -9
61 -66 136 -128 l136 -112 59 58 58 58 173 -28 c153 -25 200 -29 408 -29 l235
-1 185 81 c102 45 186 80 187 79 2 -2 -24 -128 -57 -282 -34 -153 -63 -291
-67 -306 l-5 -27 -35 19 c-53 28 -63 19 -63 -61 0 -64 34 -467 46 -537 4 -28
7 -31 24 -22 30 16 270 251 270 264 0 6 -22 39 -49 74 l-49 63 20 92 c36 170
158 640 224 865 36 122 64 232 62 245 -4 29 -52 34 -94 10z m-1524 -348 l-11
-55 -60 46 c-32 26 -57 50 -53 53 9 10 129 27 132 19 2 -4 -2 -32 -8 -63z"/>
</g>
</svg>
