<?xml version="1.0" standalone="no"?>
<!DOCTYPE svg PUBLIC "-//W3C//DTD SVG 20010904//EN"
 "http://www.w3.org/TR/2001/REC-SVG-20010904/DTD/svg10.dtd">
<svg version="1.0" xmlns="http://www.w3.org/2000/svg"
 width="241pt" height="241pt" viewBox="0 0 241 241"
 preserveAspectRatio="xMidYMid meet">
<metadata>
Created by Potrace Professional 1.0c
</metadata>
<g transform="translate(0,241) scale(0.100000,-0.100000)"
fill="#000000" stroke="none">
<path d="M1225 1570 l-40 -29 -221 -1 -222 0 -81 -52 c-235 -151 -455 -299
-463 -310 -16 -26 -9 -57 14 -62 50 -10 585 -66 791 -82 l87 -7 52 -63 c28
-35 52 -64 52 -64 1 0 16 -4 34 -10 l34 -9 70 145 c39 79 69 146 67 148 -2 2
-125 21 -274 43 l-270 38 3 25 c1 13 4 25 6 27 1 2 65 4 142 5 l140 3 42 -33
c48 -38 49 -38 247 -1 55 11 150 24 211 30 l111 11 62 -31 61 -31 48 23 c46
24 51 24 181 15 74 -5 140 -7 148 -3 13 4 14 27 8 143 -5 94 -11 141 -21 151
-12 13 -29 10 -127 -22 l-114 -36 -77 25 -78 24 -61 -32 -62 -33 -170 12
c-161 10 -173 13 -225 42 -30 17 -57 31 -60 30 -3 0 -23 -13 -45 -29z"/>
</g>
</svg>
