<?xml version="1.0" standalone="no"?>
<!DOCTYPE svg PUBLIC "-//W3C//DTD SVG 20010904//EN"
 "http://www.w3.org/TR/2001/REC-SVG-20010904/DTD/svg10.dtd">
<svg version="1.0" xmlns="http://www.w3.org/2000/svg"
 width="241pt" height="241pt" viewBox="0 0 241 241"
 preserveAspectRatio="xMidYMid meet">
<metadata>
Created by Potrace Professional 1.0c
</metadata>
<g transform="translate(0,241) scale(0.100000,-0.100000)"
fill="#000000" stroke="none">
<path d="M1166 1960 c-56 -101 -61 -115 -50 -144 5 -14 28 -16 150 -16 141 0
145 0 155 23 9 21 2 36 -66 130 -67 92 -81 107 -105 107 -25 0 -34 -11 -84
-100z"/>
<path d="M594 1656 c-7 -28 -7 -27 56 -116 l47 -65 16 -150 c10 -82 20 -189
24 -237 6 -95 8 -88 -79 -316 -38 -98 -39 -104 -24 -127 28 -43 277 -294 297
-300 14 -5 35 7 77 43 l57 49 215 7 c171 5 217 9 229 21 9 8 52 140 98 292
l82 276 60 61 c44 44 61 69 61 88 0 25 -6 29 -131 68 -72 23 -137 39 -144 36
-9 -3 -14 -39 -17 -123 -4 -115 -6 -124 -71 -320 l-68 -201 -142 -4 c-78 -2
-151 -1 -163 3 -16 6 -33 40 -72 146 -49 131 -53 151 -87 404 l-37 266 46 92
c68 133 70 131 -149 131 l-175 0 -6 -24z"/>
</g>
</svg>
