<?xml version="1.0" standalone="no"?>
<!DOCTYPE svg PUBLIC "-//W3C//DTD SVG 20010904//EN"
 "http://www.w3.org/TR/2001/REC-SVG-20010904/DTD/svg10.dtd">
<svg version="1.0" xmlns="http://www.w3.org/2000/svg"
 width="241pt" height="241pt" viewBox="0 0 241 241"
 preserveAspectRatio="xMidYMid meet">
<metadata>
Created by Potrace Professional 1.0c
</metadata>
<g transform="translate(0,241) scale(0.100000,-0.100000)"
fill="#000000" stroke="none">
<path d="M1079 2014 l-57 -56 33 -72 c40 -87 61 -167 70 -268 6 -63 2 -98 -20
-203 -15 -70 -25 -128 -23 -129 6 -6 142 -56 143 -53 1 1 15 65 32 142 l30
140 -15 133 c-8 73 -12 135 -9 139 6 5 264 -45 276 -53 1 -2 -29 -63 -67 -136
-46 -86 -78 -162 -91 -215 -26 -101 -26 -110 -1 -118 19 -6 19 -8 -7 -40 -26
-32 -27 -32 -42 -14 -9 10 -30 22 -47 25 -26 5 -35 2 -50 -19 l-19 -25 -20 24
c-28 35 -85 46 -113 24 -44 -36 -54 -102 -21 -144 17 -21 29 -26 65 -26 33 0
47 5 56 20 12 18 13 17 23 -12 13 -41 34 -52 77 -44 27 5 39 14 48 37 13 30
13 30 34 11 28 -26 58 -34 99 -27 42 8 57 36 57 103 -1 57 -16 80 -61 89 l-34
8 40 5 40 5 47 135 c52 149 132 316 157 329 9 5 40 14 69 22 28 7 52 17 52 22
0 9 -51 180 -55 185 -1 1 -35 -16 -75 -38 -83 -47 -63 -48 -308 2 l-154 32
-25 50 c-43 85 -58 86 -134 10z"/>
<path d="M900 1013 c-46 -63 -99 -136 -116 -162 l-33 -48 -71 -5 c-39 -3 -73
-8 -77 -12 -7 -6 35 -176 46 -189 4 -4 34 3 67 15 l59 21 305 -78 305 -78 29
-58 c16 -33 34 -59 40 -59 6 0 45 19 86 43 95 54 99 71 37 148 l-44 54 -17
170 c-9 94 -19 187 -22 208 l-6 37 -90 0 -91 0 7 -72 c4 -40 14 -120 22 -176
9 -57 14 -105 12 -107 -3 -3 -386 89 -416 100 -8 3 20 44 77 112 50 60 91 113
91 118 0 10 -98 129 -109 132 -3 1 -44 -50 -91 -114z"/>
</g>
</svg>
