<?xml version="1.0" standalone="no"?>
<!DOCTYPE svg PUBLIC "-//W3C//DTD SVG 20010904//EN"
 "http://www.w3.org/TR/2001/REC-SVG-20010904/DTD/svg10.dtd">
<svg version="1.0" xmlns="http://www.w3.org/2000/svg"
 width="241pt" height="241pt" viewBox="0 0 241 241"
 preserveAspectRatio="xMidYMid meet">
<metadata>
Created by Potrace Professional 1.0c
</metadata>
<g transform="translate(0,241) scale(0.100000,-0.100000)"
fill="#000000" stroke="none">
<path d="M965 1905 c-236 -84 -440 -160 -452 -169 -29 -21 -29 -46 0 -67 12
-9 169 -118 350 -243 180 -125 327 -233 327 -239 -1 -7 -43 -194 -94 -417 -52
-223 -91 -410 -89 -417 3 -7 13 -15 23 -18 17 -5 956 317 973 334 9 9 13 58 6
65 -2 2 -161 113 -354 246 -192 133 -354 246 -359 250 -4 5 31 186 78 403 48
217 84 402 80 411 -4 10 -17 16 -33 15 -14 -1 -219 -70 -456 -154z m262 -107
c-2 -7 -22 -89 -43 -181 -23 -101 -42 -166 -48 -164 -17 7 -281 198 -283 205
-2 6 350 150 371 151 4 1 6 -5 3 -11z m303 -936 l181 -119 -243 -85 c-134 -47
-244 -85 -245 -84 -2 1 103 369 112 394 2 6 7 12 9 12 3 0 86 -53 186 -118z"/>
</g>
</svg>
