<?xml version="1.0" standalone="no"?>
<!DOCTYPE svg PUBLIC "-//W3C//DTD SVG 20010904//EN"
 "http://www.w3.org/TR/2001/REC-SVG-20010904/DTD/svg10.dtd">
<svg version="1.0" xmlns="http://www.w3.org/2000/svg"
 width="241pt" height="241pt" viewBox="0 0 241 241"
 preserveAspectRatio="xMidYMid meet">
<metadata>
Created by Potrace Professional 1.0c
</metadata>
<g transform="translate(0,241) scale(0.100000,-0.100000)"
fill="#000000" stroke="none">
<path d="M1703 1784 c-7 -3 -107 -109 -224 -235 -116 -126 -216 -229 -223
-229 -6 0 -148 68 -315 150 -166 83 -306 150 -310 150 -4 0 -30 -20 -59 -44
l-51 -44 -146 5 -145 6 0 -29 c0 -40 41 -236 53 -252 17 -21 38 -13 92 37 46
41 61 49 107 54 93 12 103 9 362 -100 223 -94 253 -109 243 -123 -6 -11 -131
-56 -337 -124 -181 -58 -330 -112 -333 -119 -2 -6 -1 -19 2 -28 7 -21 311
-269 328 -269 7 0 227 200 490 445 262 245 480 445 484 445 5 0 68 -65 141
-144 115 -124 137 -154 162 -216 16 -40 36 -74 44 -78 10 -3 43 24 99 84 100
107 115 127 108 145 -3 8 -36 29 -73 46 -88 42 -204 155 -345 336 -102 131
-119 145 -154 131z m-743 -848 c-27 -27 -214 -176 -221 -176 -3 0 -28 16 -54
37 l-48 36 164 58 c90 31 166 57 169 58 2 1 -2 -5 -10 -13z"/>
</g>
</svg>
