<?xml version="1.0" standalone="no"?>
<!DOCTYPE svg PUBLIC "-//W3C//DTD SVG 20010904//EN"
 "http://www.w3.org/TR/2001/REC-SVG-20010904/DTD/svg10.dtd">
<svg version="1.0" xmlns="http://www.w3.org/2000/svg"
 width="241pt" height="241pt" viewBox="0 0 241 241"
 preserveAspectRatio="xMidYMid meet">
<metadata>
Created by Potrace Professional 1.0c
</metadata>
<g transform="translate(0,241) scale(0.100000,-0.100000)"
fill="#000000" stroke="none">
<path d="M1825 1727 c-66 -5 -122 -11 -123 -13 -2 -1 6 -62 18 -134 12 -72 20
-133 18 -134 -1 -2 -291 -16 -643 -31 -446 -19 -644 -31 -653 -39 -7 -7 -19
-52 -28 -102 -12 -69 -24 -104 -55 -155 -21 -36 -39 -71 -39 -78 0 -7 26 -70
59 -141 32 -71 55 -132 51 -137 -4 -4 -19 -29 -34 -54 l-26 -46 65 -86 c55
-73 70 -87 93 -87 25 0 32 9 67 79 l38 80 46 5 c102 12 995 66 1095 66 21 0
28 -10 52 -70 24 -61 30 -70 52 -70 24 0 200 122 230 158 25 32 13 57 -52 111
l-63 53 -5 311 -5 312 53 79 53 79 -22 28 c-24 33 -29 33 -242 16z m-47 -639
l-3 -133 -569 -48 c-313 -26 -571 -46 -573 -44 -2 3 -6 72 -10 156 l-6 151 69
1 c38 0 260 11 494 23 234 13 465 24 513 25 l88 1 -3 -132z"/>
</g>
</svg>
