<?xml version="1.0" standalone="no"?>
<!DOCTYPE svg PUBLIC "-//W3C//DTD SVG 20010904//EN"
 "http://www.w3.org/TR/2001/REC-SVG-20010904/DTD/svg10.dtd">
<svg version="1.0" xmlns="http://www.w3.org/2000/svg"
 width="241pt" height="241pt" viewBox="0 0 241 241"
 preserveAspectRatio="xMidYMid meet">
<metadata>
Created by Potrace Professional 1.0c
</metadata>
<g transform="translate(0,241) scale(0.100000,-0.100000)"
fill="#000000" stroke="none">
<path d="M1780 2074 c0 -9 5 -56 12 -104 l11 -87 -63 -124 c-47 -93 -212 -406
-225 -427 -1 -1 -111 9 -245 23 -134 14 -250 23 -257 21 -8 -3 -13 -22 -13
-48 0 -66 -9 -85 -43 -99 -73 -28 -383 -172 -393 -183 -11 -10 -27 -79 -90
-379 l-27 -128 -69 -79 c-55 -64 -65 -80 -50 -84 59 -17 360 -61 368 -53 3 3
-7 45 -22 93 -26 85 -26 93 -15 164 16 97 69 312 78 321 13 12 237 107 244
103 4 -2 12 -33 19 -69 7 -36 14 -65 16 -65 10 0 223 100 420 198 l221 110 93
179 c50 98 124 237 162 308 70 130 72 131 150 185 44 30 83 60 89 66 6 8 -12
21 -63 44 -189 86 -291 130 -299 130 -5 0 -9 -7 -9 -16z m-495 -854 c66 -7
122 -13 124 -15 3 -4 -149 -82 -234 -120 l-55 -24 0 90 c0 87 0 89 23 85 12
-3 76 -10 142 -16z"/>
</g>
</svg>
