<?xml version="1.0" standalone="no"?>
<!DOCTYPE svg PUBLIC "-//W3C//DTD SVG 20010904//EN"
 "http://www.w3.org/TR/2001/REC-SVG-20010904/DTD/svg10.dtd">
<svg version="1.0" xmlns="http://www.w3.org/2000/svg"
 width="241pt" height="241pt" viewBox="0 0 241 241"
 preserveAspectRatio="xMidYMid meet">
<metadata>
Created by Potrace Professional 1.0c
</metadata>
<g transform="translate(0,241) scale(0.100000,-0.100000)"
fill="#000000" stroke="none">
<path d="M1325 2038 c-2 -7 -6 -47 -10 -88 -13 -161 -40 -360 -55 -400 -5 -14
-12 -50 -15 -80 -10 -90 -52 -211 -96 -278 -66 -100 -201 -189 -370 -243 -138
-44 -129 -50 -129 89 l0 118 104 90 103 90 -251 18 c-138 10 -261 17 -273 15
-21 -4 -18 -10 42 -103 l65 -98 -1 -132 c0 -114 -11 -216 -33 -321 -4 -16 -27
-101 -51 -187 -25 -87 -45 -162 -45 -168 0 -6 70 -10 204 -10 l205 0 -5 43
c-2 24 -15 99 -29 167 -14 68 -24 125 -22 126 1 2 32 8 69 14 84 13 189 45
251 76 26 14 47 21 47 17 0 -5 4 -3 8 3 7 11 103 78 112 79 3 0 29 27 58 60
30 33 60 64 68 68 8 4 14 12 14 17 0 5 13 28 29 52 94 139 169 397 187 641 l7
97 158 0 158 0 10 -37 c29 -106 33 -145 20 -154 -8 -5 -58 -37 -112 -70 -54
-33 -97 -64 -95 -69 2 -4 37 -69 78 -144 68 -123 77 -136 100 -134 22 3 29 14
59 106 l34 104 75 60 c42 33 81 62 88 65 17 6 0 139 -49 373 l-22 105 -260 7
c-143 3 -289 11 -325 17 -85 14 -100 14 -105 -1z"/>
</g>
</svg>
