<?xml version="1.0" standalone="no"?>
<!DOCTYPE svg PUBLIC "-//W3C//DTD SVG 20010904//EN"
 "http://www.w3.org/TR/2001/REC-SVG-20010904/DTD/svg10.dtd">
<svg version="1.0" xmlns="http://www.w3.org/2000/svg"
 width="241pt" height="241pt" viewBox="0 0 241 241"
 preserveAspectRatio="xMidYMid meet">
<metadata>
Created by Potrace Professional 1.0c
</metadata>
<g transform="translate(0,241) scale(0.100000,-0.100000)"
fill="#000000" stroke="none">
<path d="M1324 2033 c2 -16 10 -75 16 -133 7 -58 16 -121 21 -141 l9 -36 127
-7 c71 -3 158 -9 195 -12 l66 -6 6 -47 c3 -25 13 -143 21 -261 8 -118 17 -233
20 -255 l5 -40 -57 -22 c-32 -12 -79 -28 -104 -34 l-46 -12 -76 52 c-42 29
-80 58 -85 64 -6 7 -24 47 -42 90 -17 42 -38 77 -45 77 -7 0 -44 -14 -82 -31
-261 -119 -260 -119 -354 -119 l-89 0 0 360 c0 351 0 360 -20 360 -29 0 -328
-325 -340 -370 -6 -19 -21 -139 -35 -266 -14 -126 -34 -297 -45 -380 -24 -179
-25 -214 -6 -214 18 0 110 68 273 202 l133 108 133 0 134 0 26 -88 c15 -49 27
-92 27 -97 0 -4 -30 -6 -67 -4 -113 4 -125 2 -121 -23 2 -15 45 -50 143 -116
77 -53 204 -139 283 -194 78 -54 146 -98 151 -98 5 0 14 7 21 15 10 12 1 52
-50 220 l-63 205 -53 0 -53 0 -26 82 c-14 46 -28 91 -31 101 -11 35 32 15 195
-93 l167 -110 89 38 c50 21 143 60 208 87 66 26 121 55 125 63 3 9 -4 103 -16
211 -12 108 -31 291 -43 406 -11 116 -24 234 -27 264 l-7 53 -195 59 c-163 50
-406 119 -418 119 -2 0 -1 -12 2 -27z m-603 -648 c-6 -125 -11 -248 -11 -274
l0 -48 -96 -83 c-52 -45 -97 -80 -99 -78 -2 2 10 125 27 273 l31 270 75 88
c41 48 77 86 79 83 2 -2 0 -106 -6 -231z"/>
</g>
</svg>
