<?xml version="1.0" standalone="no"?>
<!DOCTYPE svg PUBLIC "-//W3C//DTD SVG 20010904//EN"
 "http://www.w3.org/TR/2001/REC-SVG-20010904/DTD/svg10.dtd">
<svg version="1.0" xmlns="http://www.w3.org/2000/svg"
 width="241pt" height="241pt" viewBox="0 0 241 241"
 preserveAspectRatio="xMidYMid meet">
<metadata>
Created by Potrace Professional 1.0c
</metadata>
<g transform="translate(0,241) scale(0.100000,-0.100000)"
fill="#000000" stroke="none">
<path d="M406 1694 c-4 -92 -5 -168 -3 -171 3 -2 83 5 180 16 96 12 183 21
194 21 10 0 84 -50 163 -111 80 -61 152 -116 161 -123 16 -10 14 -28 -21 -211
-21 -110 -55 -276 -75 -369 l-38 -169 23 -19 c12 -10 28 -18 35 -18 8 0 107
22 222 49 289 69 640 148 690 156 36 6 43 11 53 39 9 27 7 41 -9 80 -67 154
-111 361 -111 517 0 57 -4 90 -12 97 -9 7 -38 6 -93 -4 -109 -19 -340 -54
-379 -56 -25 -2 -78 30 -291 176 l-260 178 -203 44 c-112 24 -207 44 -211 44
-5 0 -11 -75 -15 -166z m1299 -471 c4 -32 17 -113 31 -179 13 -67 24 -125 24
-131 0 -5 -48 -19 -107 -31 -60 -13 -185 -40 -278 -60 l-171 -38 33 225 c18
125 33 227 33 229 0 1 24 2 53 3 28 0 111 9 182 19 206 28 192 30 200 -37z"/>
</g>
</svg>
