<?xml version="1.0" standalone="no"?>
<!DOCTYPE svg PUBLIC "-//W3C//DTD SVG 20010904//EN"
 "http://www.w3.org/TR/2001/REC-SVG-20010904/DTD/svg10.dtd">
<svg version="1.0" xmlns="http://www.w3.org/2000/svg"
 width="241pt" height="241pt" viewBox="0 0 241 241"
 preserveAspectRatio="xMidYMid meet">
<metadata>
Created by Potrace Professional 1.0c
</metadata>
<g transform="translate(0,241) scale(0.100000,-0.100000)"
fill="#000000" stroke="none">
<path d="M925 1911 c-132 -142 -142 -156 -177 -243 -33 -80 -38 -102 -38 -174
l0 -82 -36 -6 c-19 -4 -41 -9 -48 -12 -8 -3 -72 59 -152 146 -133 144 -141
151 -174 148 l-35 -3 -49 -138 c-40 -112 -47 -142 -38 -161 10 -22 349 -236
375 -236 7 0 71 25 142 55 126 54 130 55 145 36 8 -10 104 -119 214 -240 l198
-222 27 -92 c19 -67 31 -93 44 -95 20 -4 226 123 234 145 7 18 -15 41 -90 93
-47 32 -118 108 -292 311 -126 148 -235 277 -242 287 -9 14 1 37 61 140 40 68
77 127 82 132 11 11 804 -1109 877 -1238 76 -134 72 -131 130 -75 26 26 63 75
82 108 34 61 71 163 62 171 -2 2 -46 8 -98 12 l-94 7 -457 685 c-409 611 -461
685 -486 688 -24 3 -45 -15 -167 -147z"/>
</g>
</svg>
